<?xml version="1.0" encoding="UTF-8"?>
<svg id="Capa_2" xmlns="http://www.w3.org/2000/svg" version="1.1" viewBox="0 0 438.6 237.4">
  <!-- Generator: Adobe Illustrator 29.5.1, SVG Export Plug-In . SVG Version: 2.1.0 Build 141)  -->
  <defs>
    <style>
      .st0 {
        fill: #fff;
      }

      .st1 {
        fill: #2aae6c;
      }
    </style>
  </defs>
  <g id="Layer_1">
    <path class="st1" d="M190.3,38c19.2-10.1,38.1-10.3,57.6,0,0-2.9,0-5,0-7,.6-12.8,6.8-22.6,19.2-27.8,12.4-5.2,24.9-4.1,34.6,4.9,9.9,9,20.1,15.4,34,18.2,9.1,1.8,18.2,7.5,25.5,13.5,16.9,14,33,28.9,48.9,44,29.3,27.8,36.6,68.7,18.9,102.8-18.4,35.4-56.9,55-98.8,50.2-43.9-5-79.9-41.4-82.4-83.3-.6-9.7-1.5-19.4-2.4-29.9-17.5,8.1-34.5,8.4-52.4-.2-.7,8.3-1.6,15.9-1.9,23.5-1,25.5-10.2,47.7-29.9,65.6-28.3,25.7-70.8,32.3-106.6,16.4C19.3,213.1-2.5,178.1.2,141.3c1.6-21.9,10.3-41,26.7-56.4,17.4-16.4,35.2-32.5,53.4-48,9.3-8,21.2-11.8,33.7-13.9,3.8-.6,7.6-2.7,10.8-4.9,3.6-2.4,6.5-5.7,9.7-8.5C145,.1,159.2-2.3,171.8,3.2c12.5,5.5,19.4,17.3,18.6,31.2,0,.9,0,1.9,0,3.7h0ZM343,214.4c39.2.2,71.2-29.8,71.4-66.7.2-37-31.5-67.3-70.6-67.6-39.6-.3-71.8,29.7-72,66.8-.1,37.3,31.5,67.4,71.1,67.5h0ZM95.3,214.5c39.2.1,71.1-29.8,71.3-66.8.1-37.1-31.5-67.4-70.5-67.5-39.7-.2-71.7,29.5-71.9,66.8-.2,37.3,31.5,67.4,71.1,67.5h0ZM239.8,80.1c.1-10.5-9.2-19.4-20.3-19.5-11-.1-20.6,8.7-20.8,19.1-.2,10.4,9.1,19.6,20,19.9,11.3.3,21-8.6,21.1-19.4h0Z"/>
    <path class="st0" d="M343,214.4c-39.6-.2-71.3-30.2-71.1-67.5.1-37.1,32.4-67.1,72-66.8,39.1.3,70.8,30.6,70.6,67.6-.2,37-32.2,66.9-71.4,66.7h0ZM284.3,136.8c.9,1.9,1.5,6.3,3.9,7.4,2,.9,6.2-1.7,9-3.4,2.8-1.7,5.1-4.1,7.5-6.3,11.4-10.3,24.8-16.8,40.3-19.6,4.7-.8,9.5-1.7,14.1-3.1,5.7-1.7,6.4-4.5,2.4-8.7-1.2-1.3-2.7-2.6-4.3-3.4-15.3-8.3-31.3-9.3-47-1.7-15.8,7.7-23.5,20.9-25.9,38.7h0Z"/>
    <path class="st0" d="M95.3,214.5c-39.6-.1-71.4-30.2-71.1-67.5.2-37.2,32.2-67,71.9-66.8,39,.2,70.7,30.5,70.5,67.5-.1,37-32.1,66.9-71.3,66.8h0ZM89.9,93.2c-24.1,0-44.1,16.1-47.5,37.7-.5,3.3-.3,6.8.4,10,.9,4.5,4,5.6,7.8,2.8,4-2.9,7.8-6.1,11.4-9.3,11-9.8,23.8-16.2,38.5-19.1,4.5-.9,9.2-1.5,13.5-2.8,2.6-.8,6.3-2.5,6.7-4.2.4-2-1.9-5.1-4-6.7-7.9-6.3-17.7-7.9-26.8-8.3h0Z"/>
    <path class="st0" d="M239.8,80.1c-.1,10.8-9.8,19.7-21.1,19.4-11-.3-20.2-9.5-20-19.9.2-10.4,9.8-19.2,20.8-19.1,11.1.1,20.4,9.1,20.3,19.5h0Z"/>
    <path class="st1" d="M284.3,136.8c2.4-17.8,10.2-31.1,25.9-38.7,15.7-7.6,31.6-6.6,47,1.7,1.6.9,3.1,2.1,4.3,3.4,4,4.2,3.3,7.1-2.4,8.7-4.6,1.3-9.4,2.2-14.1,3.1-15.5,2.8-28.9,9.3-40.3,19.6-2.4,2.2-4.7,4.6-7.5,6.3-2.8,1.7-7,4.3-9,3.4-2.4-1.1-3-5.5-3.9-7.4h0Z"/>
    <path class="st1" d="M89.9,93.2c9.2.4,18.9,2,26.8,8.3,2.1,1.6,4.4,4.8,4,6.7-.3,1.8-4.1,3.5-6.7,4.2-4.4,1.3-9,1.9-13.5,2.8-14.8,2.9-27.6,9.4-38.5,19.1-3.7,3.3-7.4,6.5-11.4,9.3-3.8,2.8-6.9,1.6-7.8-2.8-.6-3.3-.9-6.8-.4-10,3.4-21.6,23.4-37.7,47.5-37.7h0Z"/>
  </g>
</svg>