<?xml version="1.0" encoding="UTF-8"?>
<svg id="Capa_1" data-name="Capa 1" xmlns="http://www.w3.org/2000/svg" viewBox="0 0 1040 1040">
  <defs>
    <style>
      .cls-1 {
        fill: #f8aa1b;
      }

      .cls-2 {
        fill: #0ba2c1;
      }

      .cls-3 {
        fill: #fff;
      }

      .cls-4 {
        fill: #2aae6c;
      }

      .cls-5 {
        fill: #333;
      }

      .cls-6 {
        fill: #3b5866;
      }

      .cls-7 {
        fill: #359ad0;
      }
    </style>
  </defs>
  <path class="cls-7" d="M852.62,152.89c-.03-.39-.05-.78-.08-1.17-22.79-5.62-78.27-16.51-167.83-17.11,0,0-27.95,40.19-26.08,83.32,0,0-2.41,22.29,7.67,44.49,0,0,.97-75.45,39.43-86.5,0,0,58.07-27.53,145.89-21.93.31-.38.64-.76,1-1.1Z"/>
  <polygon class="cls-1" points="480.34 188.84 441.57 191.34 430.55 213.66 416.59 224.87 459.53 234.42 486.16 223.45 480.34 188.84"/>
  <path class="cls-2" d="M725.04,102.02c-10.48-51.71-98.57-75.91-141.96-74.96-.01,0-45.85,1-84.84,36.57,0,0-28,27.99-40.06,62.29,0,0-20.62,81.01-42.92,99.2,0,0,38.74-8.91,45.51-29.54,0,0,26.92-80.94,76.33-102.09,29.72-12.72,62.01-8.99,93.77-5.72,29.37,3.02,65.1,9.2,94.19,14.25Z"/>
  <path class="cls-5" d="M680.67,132.92l39.08-36.36-98.03-13.62s-74.91-16.07-118.58,34.82c0,0-27.95,29.8-34.71,58.31l-10.63,25.54s11.79.38,22.55-12.76c0,0,30.72-39.55,69.05-52.33,0,0,23.57-15.02,41.38-7.74,0,0,54.68,9.34,89.89,4.15Z"/>
  <path class="cls-1" d="M666.3,262.42s-21.06-42.3-6.74-83.48c0,0,10.11-30.55,24.86-44.08,0,0-65.29-1.72-93.25-6.06,0,0-7.16-4.4-21.85-1.37-11.17,2.31-28.13,9.43-47.94,23.3-7.62,5.33-15.58,12.2-24.48,20.12-4.76,4.23-8.76,10.01-13.9,15.09-3.83,3.79-55.92,37.33-26.67,38.43,30.06,1.13,57.2,5.89,83.9,20.86,0,0,95.41,48.07,41.88,142.94,0,0-25.77,61.34-115.21,112.44,0,0-53.86,18.34-62.89,45.84l-10.43,25.78s74.66,2.64,155.43-48.53c0,0,138.76-79.36,117.29-261.3Z"/>
  <path class="cls-3" d="M595.9,96.94c-.65-5.13,1.54-9.88,8.53-10.37,8.18-.57,18.08,6.58,18.13,15.39.07,12.41-15.36,11.9-22.03,4.72-2.44-2.63-4.18-6.27-4.63-9.74Z"/>
  <path class="cls-4" d="M416.59,224.87s-84.53,62.63-130.19,184.31c0,0,3.6,6.14,48.43,10.04,0,0,99,19.77,200.91-43.25,0,0,47.18-30.57,61.01-53.39,0,0-.59-57.89-78.62-87.68,0,0-62.5-21.95-101.54-10.03Z"/>
  <path class="cls-2" d="M283.84,408.4l-61.94,185.27s149.09-38.91,194.93-61.19c0,0,1.47-2.96,7.74-7.68,4.54-3.42,8.29-9.29,15.42-9.94,0,0,34.61-16.07,69.64-43.19,45.97-35.59,94.69-90.01,87.2-150.13,0,0-38.05,44.52-92.68,69.92-9.84,4.57-18.21,10.97-29.15,13.74,0,0-92.27,34.53-191.17,3.2Z"/>
  <path class="cls-5" d="M317.76,566.1c25.16-13.09,63.73-26.4,92.17-33.53,6.38-.04-5.67,17.66-13.9,38.47-19.68,47.85-30.33,73.79-46.68,128.87-18.06,56.94-25.88,114.93-55.47,166.59-27.67,42.18-30.04-5.26-25.92-29.51,9.13-58.68,49.86-160.41,63.99-211.66-2.65,3.56-30.2,71.52-42.7,100.54-15.87,35.54-57.48,159.71-104.23,150.87-11.88-28.23,20.91-85.77,33.42-112.82,18.23-36.86,73.31-149.88,88.97-184.22,2.48-5,4.92-9.21,9.12-12.65l1.22-.95Z"/>
  <path class="cls-7" d="M335.82,612.65c-42.16,99.32-84.85,209.25-133.11,287.45-10.71,15.5-19.59,33.53-30.31,49.8-13.81,21.74-22.06,26.51-28.13,51.09-6.98,29.03,12.68,50.29,39.44,32.51,17.26-11.34,23.7-32.59,32.49-53.45,29.89-97.2,99.63-303,119.64-367.36v-.03Z"/>
  <path class="cls-6" d="M678.35,135.05l40.09-38.63s112.43,16.89,133.82,55.8c0,0-101.86-22.68-173.91-17.18Z"/>
  <path class="cls-5" d="M664.87,260.96s-3.74-73.98,32.59-85.11c0,0,60.3-30.32,149.86-21.48,0,0-55.42-19.14-169.49-19.37,0,0-26.56,39.97-24.99,82.71,0,0,2.63,21.29,12.03,43.25Z"/>
</svg>