<?xml version="1.0" encoding="UTF-8"?>
<svg id="Capa_2" data-name="Capa 2" xmlns="http://www.w3.org/2000/svg" xmlns:xlink="http://www.w3.org/1999/xlink" viewBox="0 0 154.65 230.2">
  <defs>
    <style>
      .cls-1 {
        mask: url(#mask-1);
      }

      .cls-2 {
        fill: #fff;
      }

      .cls-3 {
        mask: url(#mask);
      }

      .cls-4 {
        mask: url(#mask-2);
      }

      .cls-5 {
        fill: #2aae6c;
      }

      .cls-6 {
        mask: url(#mask-3);
      }
    </style>
    <mask id="mask" x="23.95" y="0" width="128.77" height="136.12" maskUnits="userSpaceOnUse">
      <g id="mask0_130_78" data-name="mask0 130 78">
        <path class="cls-2" d="M152.72,92.65c-.97-1.35-2.56-2.04-3.73-2.89-5.15-3.76-10.69-5.81-15.65-9.8l-3.39-3.91c-2.44-2.68-4.88-4.46-7.88-4.92l-3.89-.33c-3.51.36-10.87,2.06-12.5-2.57l.22-.33c1.22.04,2.48,1.19,3.76.81,1.91-.56,1.68-3.8,1.61-5.05-.23-4.03-4.21-14.01-7.9-18.5-8.58-10.43-16.92-17.91-26.75-22.97-2.25-1.16-9.59-3.3-12.15-2.15l-.1.36c1.25,2,3.87,1.8,5.49,2.91l-.03,1.56c.48,1.66,7.35,4.38,8.76,5.55l1.29,2.24,2.85,2.27-.15,1.53c.53,2.29,5.57,5.49,6.88,6.22l1.9.96c.87.91.24,1.84.52,2.69.29.9.94,1.24.96,2.02-1.02.85-1.88,1.52-1.88,2.63,0,.46.2.78-.05,1.16l-1.61,1.14c-.58.77.08,1.34-.07,2.2-.14.77-1.12.99-.96,1.9v.2s1.24,1.76,1.24,1.76l-.29.58-.43.15c-1.36-.24-2.94-2.38-4.07-3.31l-2.71-1.83-4.5-7.8c-2.96-3.69-5.13-7.99-8.21-11.01-2.04-2-5.06-4.69-7.61-4.98-1.63-.18-4.97.39-6.84,1.89l-1.66,1.58c-.9.37-2.39.14-3.37,1.12l-.74,1.56-1.71.78-.73,2.48c-.88.9-2.17.98-2.63,2.04-.44.99.4,2.68-.11,3.56-.64,1.11-1.64,1.25-1.77,2.46-.1.94.68,2.08.74,3.07l-1.87.87c-.86.91-.8,2.43-.46,3.66l.86,1.67-.56,2.59c.28,2.53,3.03,3.8,4.63,4.64,7.24,3.76,15.48,5.45,23.47,6.42,2.67.32,4.35,1.03,6.85,1.71.73.13,1.45.26,2.18.39l2.28,1.98c.54.38.94.19,1.45.91.08.79.57,2.28.3,3.02l-.31.18c-.74-.33-1.66-.69-2.61-.24-.78,1.05-.42,1.82.11,3.23l-.11.17c-1.77.64-9.78-2.79-11.76-3.61l-11.11-3.37h-2.68c-2.61-1.16-4.48-3.88-7.07-5.29-.76-.42-1.94.13-2.58-.36l-1.26-1.64c-1.28-1.38-2.64-2.94-4.1-3.71-.44.15-.35.08-.69.4.29,1.62,1.2,3.02,1.94,4.96,2.23,5.79,5.97,8.84,9.81,11.63,2.54,1.85,5.31,2.99,8,4.23,10.74,4.97,22.84,8.59,35.71,5.33,1.82-.46,6.2-1.75,7.87-3.31l1.72-2.02c4.55-1.92,9.91-2.63,14.14-2.6l7.08.13,5.28.76c1.89.07,4.16-.46,5.88.21,3.15,1.21,6.22,2.64,9.16,4.29,1.22.69,3.07,2.66,4.44,2.69l-.04-.08-3.36-2.79,1.25.2c.8.68,5.2,3.78,5.98,3.76Z"/>
      </g>
    </mask>
    <mask id="mask-1" x="23.93" y="-.01" width="128.79" height="136.14" maskUnits="userSpaceOnUse">
      <g id="mask1_130_78" data-name="mask1 130 78">
        <path class="cls-2" d="M99.22-.01l53.5,92.67-75.29,43.47L23.93,43.46,99.22-.01Z"/>
      </g>
    </mask>
    <mask id="mask-2" x="0" y="92.08" width="154.67" height="138.13" maskUnits="userSpaceOnUse">
      <g id="mask2_130_78" data-name="mask2 130 78">
        <path class="cls-2" d="M38.06,92.08c4.22-.06,8.52,1.81,10.29,4.18.78,1.05,1.29,2.11,1.93,3.34.83,1.6,1.87,4.53,1.36,6.91-.16.76,0,1.39-.14,2.07l-.85,3.19-.75,1.46-.23,1.03c-.48,1-1.44,1.8-1.88,2.96-.4,1.06-.49,3.01.56,3.38.77.28,2.1-.03,2.82-.19l5.64-.71,3.1.05c2-.23,4-.02,5.64.28,2.84.53,5.2.72,7.75,1.46,4.13,1.19,8.29,2.39,12.03,3.99l3.25,1.46,2.25,1.27c2.38.9,4.5,1.61,6.76,2.58,2.9,1.25,5.63,3.09,8.5,4.32,1.3.56,2.75.77,4.18,1.22,3.09.97,6.52,1.88,9.68,2.77,2.35.66,4.58,1.03,6.86,1.64,4.57,1.22,9.01,2.63,13.91,3.62l2.49.05c3.48.56,8.07.32,10.15,2.44-.07.29-.17.33-.14.61.45.21,1.16.51,1.46.89-.14.63-1.54.99-2.16,1.17-1.67.49-3.68.52-5.59.89-1.03.2-2.3-.3-3.29.09-.1.06-.08.05-.14.14l.09.14c.64.12,4.23,1.21,4.51,1.55l-.09.19c-.97.18-1.53.86-2.4,1.13-.69.21-2.6-.02-3.05-.24v-.05l.19-.47-.47-.47-.14.14c.07.33-.16.55-.09.85l.19.38-.09.09c-.93.18-1.99.12-2.91.33-.88.2-1.86.67-2.72.89-1.07.28-2.26.22-3.29.38l-2.3.61c-1,.21-2.15.15-3.15.33-3.32.59-7.04.36-10.2.94l-2.44.28c-1.96.56-3.41,1.53-4.93,2.44-2.23,1.34-4.84,2.38-7.42,3.29-1.02.36-2.23.3-3.29.71-.67.26-1.78.54-2.44.94-.42.25-.81.65-1.32.85-.39.15-.71.06-1.17.19-.82.22-1.77.69-2.54.94-1.34.43-5.03.66-5.73,1.36.59,2.52,7.18,2.79,7.75,5.92.25,1.37-.91,2.44-1.6,2.96-1.86,1.41-4.13,1.68-6.62,1.08l-1.88.05c-.89-.16-1.97-.25-2.87-.47-.8-.2-3.58-.71-4.18-.38.05,2.33,1.5,5.05,1.17,7.66-.11.9-.71,1.24-.89,1.88-.25.85,0,2.36-.23,3.34-.54,2.23-.82,5.18-1.22,7.47-.26,1.51-.03,2.9-.33,4.46-.25,1.26-.15,2.72-.47,4.09-.13.56-.32,1.63-.23,2.21l.19.19c.7,0,1.11-.17,1.64-.28.7-.15,1.58-.03,2.21.05l3.24.14c3.29.75,6.83,1.57,10.06,2.26l1.46-.05c1.14.13,2.49.33,3.52.52.52.09,1.06-.07,1.41-.14.97-.2,2.34.08,3.34.24,1.51.24,3.17-.29,4.37-.47l1.41.19c.88.17,2.02-.09,2.87.05,3.18.5,6.67.19,8.97,1.64v.19l-.19.23c-.49.11-1-.16-1.6-.05l-1.03.38-1.13-.09c-.91.17-1.93.45-2.4,1.08v.09c1.39,1.13,5.19.02,6.01,1.6l-.52.56c-.17.44.03.76-.24,1.22l-.56-.14c-.42.54-.33.1-.85.33l-.33.42-.99.14c-.28.15-.42.68-.75.85-.46.23-.95.03-1.55.19-.38.1-.95.55-1.31.66h-.61l-.38.52c-.69.46-2.72.72-3.43.61.05.27.16.31-.05.47h-.28l-.09-.38c-.24-.08-.51-.15-.66-.05-.09.07-.03,0-.09.09l-.05.38c-.37.09-.52-.09-.89-.14l-.42.52-.28-.19c-.46.17-.67.47-1.03.71-.51-.17-.85-.36-1.36-.56-.26.18-.28.51-.52.71l-.52-.24c-.14.12-.23.16-.33.33l.28.66c.31,0,.4.04.56.14.04.29.06.57-.05.8l-.28-.09-.19-.23h-.19c-.46.78-.75,1.5-1.27,2.16l.09.14c.28-.06.39-.14.56.09.07.24.07.74.38.85.28.1.77-.19,1.17-.1.41.09,1.18.53,1.55.75v.14l-.09.09c-2.23-.24-3.91.52-6.01.09-.77-.15-2.03-.61-2.82-.85l-1.32-.05c-.51-.19-.78-.64-1.5-.7l-.42.28-.23-.1c-.04-.21-.03-.17-.14-.28l-.8.61-.14-.14.09-.14.23-.14v-.14l-.09-.09c-.56-.14-.78.09-1.32.14-.52-.71-.76-.38-1.6-.66-.22-.07-.41-.36-.85-.23-.26.08-.28.35-.66.23-.41-.22-.6-.74-.94-1.03h-.61c-.54.26-.78.94-1.17,1.36.02.06.62,1,.66,1.03.4.13.94-.17,1.22-.33.26.08.32.26.52.33l.7.05.56.47,2.3-.05.28-.42.09.09-.14.28.47.61-.09.24c-.93.11-2.3-.28-3.1-.47l-2.44.19c-.41-.06-1.13-.01-1.55-.09-.31-.06-.52-.41-.89-.47-.61-.1-1.08.31-1.46.42l-4.04-.33v-.14c.45-.25,1.12-.24,1.55-.47.47-.26.63-.86,1.03-1.13l.42-.09v-.19c-.23-.28-.47-.56-.7-.85-.61.17-.9.11-1.27-.19-.89.25-1.08.14-1.93.05l-.14.14c.04.4.04.47-.28.61-.2-.11-.22-.17-.28-.42l-.23.05c-.05.13-.09.25-.14.38-1.2,0-1.83-.81-2.77-.61l-.47.52-.47-.05c-.42.12-1.46.82-1.93.66l-.47-.38h-.09l-.75.8-.56-.28c-1.11.58-1.99,1.21-3.01,1.79l-.7.19-1.69,1.32-.23-.09c-.48-2.52,2.47-3.73,3.57-4.98-.05-.06-.09-.12-.14-.19-.45.19-.72.2-1.27.14-.54.77-1.04.42-1.83.85l-.14.38c-.63-.1-.97-.09-1.46.24-.06.41-.13.67-.42.85-.28-.09-.27-.34-.47-.42-.37-.16-1.23.01-1.74-.24-.23.24-.47.47-.7.71-.6-.09-.94-.65-1.5-.89-.17.11-.23.21-.33.38h-1.37c-.11-.18-.25-.34-.42-.47l-.52.47c-.28-.15-.3-.36-.52-.56-.48.07-1.28.22-1.69.47v.05l.14.09c.23.08.3-.08.38.28l-.23.28c-.33-.04-.9-.29-1.13-.24-1.23.3-3.06.9-4.28.09l.05-.71c.28.02.37.04.56-.05-.03-.5.28-.59.19-1.03l-.47-.05v-.14l.23-.23-.05-.09c-.18-.31-.61-.49-1.03-.42-.06.2-.02.33-.05.56l-.19.09c-.48-.09-.68-.43-.99-.7-.36.08-.5.18-.8,0v-.05c.03-.92.56-.72.85-1.22.19-.38.13-.88-.05-1.22-.85-.24-.51-.32-1.32-.05-.37-.31-1.16-.76-1.69-.85-.7-.11-.9.29-1.36-.33.08-.12.06-.11.19-.19.15-.04.15-.01.28.05l.09.19c.33-.16.85-.29,1.08-.56-.04-.24-.08-.3-.23-.42l-.38.23c-.17-.05-.19-.06-.28-.19-.09-.22.15-.27.05-.56-.05-.15-.22-.18-.28-.42l.42-.38-.09-.28c-.34.06-.58.11-.89-.05-.07-.25-.17-.36-.33-.52-.73-.02-1.03.22-1.6.47l-.52-.38c-.28.06-.33.19-.52.33-.47-.24-.96-.47-1.64-.38l-.94.14-.47-.23c-.23.3-.53.3-.89.47-.41,2.94-2.94,1.4-4.7.99-.59-.14-1.11.14-1.64,0l-.23-.38c.62-1.02,2.12-.44,3.34-.66l.99-.14c.53.1,1.62.47,2.02.05l-.19-.33h-.66l-.05-.19.09-.09c1.18.03,6.44-.17,7.09-.66.44-.32.41-.96.28-1.5-.32-.21-.54-.08-1.03-.24-.68-.21-.89-.82-1.69-.99-.02-.31.05-.64-.23-.8-.41-.36-.9-.12-1.27-.24-.38-.12-2.6-1.19-2.82-1.46v-.09c.64-.43,1.9-.03,2.44-.38.05-.08.09-.16.14-.24-.03-.17-.02-.14-.09-.23-.26.06-.35.12-.61.09l-.05-.19.14-.14,1.41-.24.47.61.19-.05.23-.47c.18.13.2.2.52.24,1.33-.83,3.41-.48,4.75-1.22v-.19c-.15-.08-.28-.14-.38-.28l.05-.09c1.31-.01,2.62.13,3.9.42l2.77.19c.79.14,2.24.36,3.15.19.63-.12,1.61.02,2.26-.23.54-.21,1.82-1.01,2.77-.8l.28.19c.44.09.89-.22,1.32-.14.16.03.21.25.52.19.28-.06.69-.24,1.03-.19.65.1,1.58.23,2.35.09l2.02.05c1.27-.2,2.91-.37,4.37-.14.73.12,1.32.3,1.83.19l2.3.14c.6-.33.39-1.64.52-2.44.27-1.69.34-3.19.56-4.98l1.03-9.58.09-4.09c-.15-.71-.4-1.73-.23-2.63.11-.56.22-1.13.33-1.69.17-.38.5-.63.61-1.13-.03-.5-.06-1-.09-1.5-.02-.6-.03-1.19-.05-1.79-.14-.86-.36-1.54-.52-2.3l-4.23-.42h-1.36c-1.27-.21-3.23-.31-4.56-.14-1.05.13-2.32-.22-3.1.28-.67.43-1.01,2.96-1.41,3.81-.51,1.07-1.99,2.59-1.08,4.13.66.25,1.33.44,2.02.56h2.35l1.08.71c.71.15,1.37-.43,2.02-.14-.14.6-1.05.82-1.55,1.08v.14l.05.05c.93-.06,1.72-.91,2.44-.61v.05c-.4,1.21-1.98,2.13-3.38,2.3-.87.1-2.19-.11-2.91.28v.19c.74.51,1.35,1.17,2.16,1.64.4.24.92.22,1.36.47.37.21.51.68.99.8.6.15.94-.22,1.46-.09v.19c-3,2.27-5.03-.7-7.24-2.02l-1.13-.71-.75.09c-.62.12-1.27-.14-1.64-.42-.71-.54-.96-1.83-1.36-2.68-.39-.79-.88-1.54-1.46-2.21-.26-.3-.76-.81-.61-1.46l1.74-4.89c.39-1.44.08-2.91.85-4.13.81-1.29,3.74-.74,5.45-.42,1.97.36,4.29.2,6.44.47l1.55-.05c1.25.27,4.01.66,5.36.42.37-1.54-1.12-4.71-2.02-5.26-1.1-.67-4.07-.4-5.64-.75-2-.44-4.47-.44-6.58-.89l-2.68-.24c-2.44-.56-5.1-.98-7.56-1.69-2.37-.69-4.81-1.91-6.53-3.33-.38-.31-.68-.79-1.08-1.08-.78-.57-1.73-.8-2.49-1.36l-.38-.52c-.73-.59-1.44-1.12-2.16-1.69l-1.88-2.25c-2.13-1.8-4.57-3.29-6.76-5.03l-.89-1.03c-.67-.73-1.47-1.36-2.07-2.16-.57-.75-.93-1.6-1.41-2.44-.85-1.49-1.9-2.97-2.63-4.65-.32-.74-.76-1.68-.94-2.4l-.05-.8c-.25-.57-.63-1.34-.75-2.16-.07-.49.29-.54.33-.89l-.28-1.36c.06-.35.26-.77.33-1.08.13-.59-.31-.9-.14-1.6.17-.69.58-1.3.75-1.83.2-.61.49-1.25.61-1.79.08-.35-.15-.44-.19-.61-.1-.45.4-1.04.56-1.32.29.07.29.09.52-.05.92-2.38,2.36-4.11,3.9-5.87.18-.21.59-.13.75-.38l.14-.47.33-.19-.05-.47.47-.42v-.05c.08-.14.56-1.32.56-1.32l-.19-.56c.18-3.06-1.22-5.32-3.62-6.06-1.13-.35-2.65-.06-3.66.14l-1.5-.05-2.82.38c-2.86.49-5.64-.08-8.79.56-1.63.33-5.1,1.5-6.62.61l-.05-.43c1.73-1.74,4.31-1.82,7.14-2.54,4.88-1.23,10.04-1.7,14.38-3.38,2.8-1.09,4.33-6.18,6.81-8.08,1.78-1.37,3.62-2.22,6.25-2.82l3.48-.28Z"/>
      </g>
    </mask>
    <mask id="mask-3" x="0" y="92.08" width="154.67" height="138.13" maskUnits="userSpaceOnUse">
      <g id="mask3_130_78" data-name="mask3 130 78">
        <path class="cls-2" d="M154.67,92.08H0v138.13h154.67V92.08Z"/>
      </g>
    </mask>
  </defs>
  <g id="Capa_1-2" data-name="Capa 1">
    <g class="cls-3">
      <g class="cls-1">
        <rect class="cls-5" x="44.87" y="14.56" width="86.93" height="106.99" transform="translate(-22.19 53.28) rotate(-30)"/>
      </g>
    </g>
    <g class="cls-4">
      <g class="cls-6">
        <rect class="cls-5" y="92.08" width="154.65" height="138.11"/>
      </g>
    </g>
  </g>
</svg>