<?xml version="1.0" encoding="UTF-8"?>
<svg id="Capa_2" xmlns="http://www.w3.org/2000/svg" version="1.1" viewBox="0 0 364.3 326.6">
  <!-- Generator: Adobe Illustrator 29.5.1, SVG Export Plug-In . SVG Version: 2.1.0 Build 141)  -->
  <defs>
    <style>
      .st0 {
        fill: none;
      }

      .st1 {
        fill: #2aae6c;
        stroke: #1d1d1b;
        stroke-miterlimit: 10;
      }
    </style>
  </defs>
  <g id="Symbol">
    <g>
      <path class="st1" d="M67.2,63.2c0,5.5-5.4,10-12,10h-3.3c-6.6,0-12-4.5-12-10V10.5c0-5.5,5.4-10,12-10h3.3c6.6,0,12,4.5,12,10v52.7Z"/>
      <g>
        <path class="st0" d="M332.8,101.5H31.5c-5.9,0-10.7,4-10.7,8.9v191.1c0,4.9,4.8,8.9,10.7,8.9h301.3c5.9,0,10.7-4,10.7-8.9V110.4c0-4.9-4.8-8.9-10.7-8.9Z"/>
        <path class="st1" d="M351.8,44.8h-21.3v21.3c0,6.6-7.8,12-17.4,12h-4.8c-9.6,0-17.4-5.4-17.4-12v-21.3h-46v21.3c0,6.6-7.8,12-17.4,12h-4.8c-9.6,0-17.4-5.4-17.4-12v-21.3h-46v21.3c0,6.6-7.8,12-17.4,12h-4.8c-9.6,0-17.4-5.4-17.4-12v-21.3h-46v21.3c0,6.6-7.8,12-17.4,12h-4.8c-9.6,0-17.4-5.4-17.4-12v-21.3H12.5c-6.6,0-12,5.4-12,12v257.3c0,6.6,5.4,12,12,12h339.3c6.6,0,12-5.4,12-12V56.8c0-6.6-5.4-12-12-12ZM343.5,301.5c0,4.9-4.8,8.9-10.7,8.9H31.5c-5.9,0-10.7-4-10.7-8.9V110.4c0-4.9,4.8-8.9,10.7-8.9h301.3c5.9,0,10.7,4,10.7,8.9v191.1h0Z"/>
      </g>
      <path class="st1" d="M153,63.2c0,5.5-5.4,10-12,10h-3.3c-6.6,0-12-4.5-12-10V10.5c0-5.5,5.4-10,12-10h3.3c6.6,0,12,4.5,12,10v52.7Z"/>
      <path class="st1" d="M324.5,63.2c0,5.5-5.4,10-12,10h-3.3c-6.6,0-12-4.5-12-10V10.5c0-5.5,5.4-10,12-10h3.3c6.6,0,12,4.5,12,10v52.7Z"/>
      <path class="st1" d="M238.7,63.2c0,5.5-5.4,10-12,10h-3.3c-6.6,0-12-4.5-12-10V10.5c0-5.5,5.4-10,12-10h3.3c6.6,0,12,4.5,12,10v52.7Z"/>
      <g>
        <g>
          <rect class="st1" x="29.3" y="227" width="46.7" height="35.1"/>
          <rect class="st1" x="80.7" y="227" width="46.7" height="35.1"/>
          <rect class="st1" x="132.1" y="227" width="46.7" height="35.1"/>
          <rect class="st1" x="183.5" y="227" width="46.7" height="35.1"/>
          <rect class="st1" x="234.9" y="227" width="46.7" height="35.1"/>
          <rect class="st1" x="286.3" y="227" width="46.7" height="35.1"/>
        </g>
        <g>
          <rect class="st1" x="29.3" y="266.7" width="46.7" height="35.1"/>
          <rect class="st1" x="80.7" y="266.7" width="46.7" height="35.1"/>
          <rect class="st1" x="132.1" y="266.7" width="46.7" height="35.1"/>
          <rect class="st1" x="183.5" y="266.7" width="46.7" height="35.1"/>
          <rect class="st1" x="234.9" y="266.7" width="46.7" height="35.1"/>
        </g>
        <g>
          <rect class="st1" x="29.3" y="187.8" width="46.7" height="35.1"/>
          <rect class="st1" x="80.7" y="187.8" width="46.7" height="35.1"/>
          <rect class="st1" x="132.1" y="187.8" width="46.7" height="35.1"/>
          <rect class="st1" x="183.5" y="187.8" width="46.7" height="35.1"/>
          <rect class="st1" x="234.9" y="187.8" width="46.7" height="35.1"/>
          <rect class="st1" x="286.3" y="187.8" width="46.7" height="35.1"/>
        </g>
        <g>
          <rect class="st1" x="29.3" y="148.5" width="46.7" height="35.1"/>
          <rect class="st1" x="80.7" y="148.5" width="46.7" height="35.1"/>
          <rect class="st1" x="132.1" y="148.5" width="46.7" height="35.1"/>
          <rect class="st1" x="183.5" y="148.5" width="46.7" height="35.1"/>
          <rect class="st1" x="234.9" y="148.5" width="46.7" height="35.1"/>
          <rect class="st1" x="286.3" y="148.5" width="46.7" height="35.1"/>
        </g>
        <g>
          <rect class="st1" x="132.1" y="108.8" width="46.7" height="35.1"/>
          <rect class="st1" x="183.5" y="108.8" width="46.7" height="35.1"/>
          <rect class="st1" x="234.9" y="108.8" width="46.7" height="35.1"/>
          <rect class="st1" x="286.3" y="108.8" width="46.7" height="35.1"/>
        </g>
      </g>
    </g>
  </g>
</svg>