<?xml version="1.0" encoding="UTF-8"?>
<svg id="Capa_1" data-name="Capa 1" xmlns="http://www.w3.org/2000/svg" viewBox="0 0 23 47">
  <defs>
    <style>
      .cls-1 {
        fill: #fff;
      }
    </style>
  </defs>
  <path class="cls-1" d="M6.98,18.43H1.88v5.64h5.1c.51.01.94.42.94.94v20.11h5.66v-20.11c0-.52.42-.94.95-.94h6.6v-5.64h-6.6c-.52,0-.95-.42-.95-.94,0-2.42,0-4.18.16-5.55.17-1.52.53-2.53,1.29-3.23.02-.01.04-.03.07-.06.66-.58,1.53-.87,2.73-1,.89-.1,1.97-.12,3.31-.12V1.89c-3.27,0-5.79.02-7.67.24-1.89.23-3.13.67-3.9,1.51-.79.88-1.19,2.25-1.4,4.37-.23,2.25-.23,5.35-.23,9.47,0,.52-.42.94-.94.94ZM.95,16.54h5.09c0-3.67.02-6.49.24-8.7.26-2.53.79-4.25,1.88-5.45,1.11-1.23,2.71-1.83,5.07-2.12,2.18-.27,5.03-.27,8.83-.27.52,0,.95.42.95.94v7.52c0,.52-.42.94-.95.94-1.74,0-3.07,0-4.04.11-.8.09-1.35.24-1.68.53l-.03.03c-.39.36-.59,1-.7,2.06-.12,1.05-.13,2.5-.13,4.4h6.59c.52,0,.95.42.95.94v7.53c0,.51-.42.93-.95.93h-6.59v20.11h-.01c0,.52-.42.94-.94.94h-7.54c-.51-.01-.94-.42-.94-.94v-20.11H.95c-.52,0-.95-.42-.95-.93v-7.53c0-.52.42-.94.95-.94Z"/>
</svg>