<?xml version="1.0" encoding="UTF-8"?>
<svg id="Capa_2" xmlns="http://www.w3.org/2000/svg" version="1.1" viewBox="0 0 301.4 300.8">
  <!-- Generator: Adobe Illustrator 29.5.1, SVG Export Plug-In . SVG Version: 2.1.0 Build 141)  -->
  <defs>
    <style>
      .st0 {
        fill: #2aae6c;
      }
    </style>
  </defs>
  <g id="Symbol">
    <g>
      <path class="st0" d="M43.5,134.4c-17.1-.6-41.5-8.4-43.3-28.5C-2,81.3,14.4,22.3,34.1,6.1c24.9-20.4,43.3,15.3,50.7,34.7s12.2,42.8,12.7,64.3l3.8,1.1v-46.1c0-.2,1.3-3.1,1.6-3.4,2.1-2.4,8.4-1.2,8.4,1.5v48l4.4-1c.3-30.3-4.1-62.1,15.6-87.7-9.5-6.7-22.6-8.6-34-6.5-4.5.8-14.5,6.8-16,0-1.4-6.2,4.1-7.2,8.8-8.5,17-4.8,33.4-2.1,48.4,7,3.6-2.6,8.3-9.9,13.2-9.3,4.4.6,16.2,14,19.1,18,1.9,2.7,4.2,5.8,5.1,9,15-8.1,32.3-6.5,44.5,5.6,6.5-16.2,21.9-41,42.6-29.8,23.2,12.7,37.4,71.1,38.4,95.9,1,26.3-21,33.6-43.3,35.5v11.3h39.8c3.2,0,6.5,9.3-1.9,10.1H4.9c-7.4-.9-4.6-10.1-1.2-10.1h39.8v-11.3h0ZM53.5,124.4c10.1,0,28.3-4.5,32.6-14.7,3.3-7.9-1-29.6-2.9-38.5-3.3-15.1-14.6-51.7-28.6-59.2-4.4-2.3-7.2-2.3-11.5,0-14.1,7.6-25.3,44.1-28.6,59.2-2,9-6.2,29.9-3.1,38,4,10.4,22.1,14.9,32.2,15.2v-21.6c-2.9-4.2-18.8-11.2-12.6-17.6,4.3-4.4,9,2.1,12.6,4.1v-27.9c0-.3,1.1-4,1.3-4.3,1.8-3,8.7-1.6,8.7,1.2v12.2c3.4-1,5.5-5.4,9.1-5.7,4.9-.3,7.2,4.9,4.1,8.5s-9.9,7-13.2,10.7v40.5h0ZM258.1,124.4c10-.2,27.7-4.7,32-14.7,3.4-7.9-1-29.5-3-38.5-3.3-15.1-14.5-51.7-28.6-59.2-8.5-4.6-14.5,1.3-19.5,7.7-2.7,3.4-11.6,19.3-12,23.1,0,.9,1.6,4.7,1.9,6.3.7,3.3,2.5,11.1-2,12.4-8,2.4-6.8-6.8-8.2-11.7-5.5-20.1-33.5-24.1-44.6-6.6-8.2,12.9-1.9,42.6-3.7,58.1,2.3,10,9.3,17.3,19.3,19.9v-38.3c-.6,0-1.2-.2-1.6-.6-3.1-3-8.6-6.3-11-9.1-2-2.3-1.8-6.3.9-7.9,4.7-2.7,8.2,2.8,11.6,5.1v-11c0-1.4,2.4-3.8,4.1-4,1.9-.3,5.9,1.2,5.9,2.8v31.1c4.2-1.3,8.9-9.2,13.5-3.7,5.3,6.4-10.6,13.4-13.5,17.9v16.9c.5.5.5.8,1.3.7,7.5-1.2,15.3-9.3,17.6-16.3,2.9-9.2-.2-19.9,1.3-28.9.8-5.1,9.1-5.7,10,.6s.5,22.6-.9,28.5c-1,4.2-3.2,8.8-5.9,12.2,0,2.9,21.5,8.3,25,7.2v-21c-2.8-4.4-19.6-11.7-13.2-18.2,4.7-4.8,9,2.9,13.2,4.1v-31c0-2.8,6.9-4.2,8.7-1.2.2.4,1.3,4.1,1.3,4.3v9.1c3.5-2.2,6.9-7.7,11.6-5.1,2.8,1.6,2.9,5.6.9,7.9-2.8,3.2-9.4,6.8-12.6,10v41.1h0ZM145.8,121.9v-37.9c-2.9-4.4-19.3-11.6-12.9-17.9,4.5-4.4,9.3,2.4,12.9,4.4v-11.6c0-.4,1.9-2.9,2.5-3.1,2.6-1.2,7.5.4,7.5,3.1v31.1l4.4-3.6c1.2-17.7-4.3-37.4,8.1-52.1.4-1.9-7.9-13.2-9.6-15.2-1.6-1.8-6.5-7.4-8.7-6.8-.7.2-6.1,5.8-7.1,6.8-11.1,12.6-16.4,28.1-17.3,44.8-.6,12.1-.9,30.1,0,42.1.9,11.5,8.9,16.8,20.1,16h0ZM155.8,121.9c4.2,0,9.3,0,12.5-2.8-4.8-5.3-7.6-12.6-8.1-19.8l-4.4,3.4v19.1ZM101.2,116.2c-2.1.4-5.1-1.4-6.9-.3-.7.4-3.7,5.1-5.4,6.6-8.6,7.8-23,11.2-34.4,12l-1,.8v10.4h47.7v-29.5h0ZM145.8,131.9c-9.1.5-18.3-2.2-24.2-9.4-1.8-2.2-2.7-4.7-4.5-6.8l-5.8,1.5v28.5h34.5v-13.8ZM248,145.7v-10.4c-2.2-1.5-6.1-1.2-8.9-1.8-8.4-1.6-16.1-4.1-23.4-8.6-5,2.9-10.1,5.6-16,6.3v14.4h48.3ZM189.7,131.3c-4.8-.8-9.3-2.6-13.5-5-5.9,4.5-13,5.9-20.4,5.7v13.8h33.9v-14.4h0Z"/>
      <path class="st0" d="M91,175c1.9-2-1.1-8,4.4-9.1,6.5-1.4,7.1,6.8,5.6,11.3-4.1,12.6-22.8,7.5-27.1,17.4-2.6,6,2.8,18.5,3.4,25.5.8,9.2-.3,17.8-4.4,26.2-2.5,5.2-6.9,9.6-9.3,14.8,21.2,15.9,46.4,26.9,73,29.5,38.8,3.8,81.2-9.8,109.5-36.7.7-.7,4.4-4,3.8-4.7-11.1-4.1-26.5-2.3-35.8,5.3-11.5,9.5-23.6,36.7-41.8,24.9-14.3-9.2-15.3-30-8.4-44-18.6,13.8-48.8,7.6-59.3-13.1-9.9-19.6,6.1-43.8,24.4-51.6,24.1-10.3,43.7,13.7,72.2.6,4.5-2,11.4-9.1,15.1-3,2.4,4-1.1,6.3-4.1,8.4-10.4,7.2-23.6,9.4-36,8.6-21.5-1.4-34.9-17.1-54.6,2.5-26.1,26,4.9,55.8,33.6,41.1,5.6-2.9,16.3-13.5,21.6-6,2.4,3.3,1.3,5.5.1,9-2.8,8.3-8.4,15-7.4,24.6.7,6.4,7,18.8,14.9,14.9,6.6-3.3,14.9-17,21.2-22.7,13.5-12.3,35.6-15.3,51.8-6.6,12.5-14.7,22.4-32,27.9-50.5,2.3-7.7,3.5-15.6,5.4-23.4,3.1-4.4,9.3-2.1,9.4,3,.1,5.9-4.6,21.7-6.6,27.9-42.4,126.2-218.5,138.1-277.7,18.6-5.3-10.8-14-34.4-14.3-46-.1-4.8,4.8-8,8.4-4.6,2,1.9,3.5,13.9,4.4,17.6,6.4,26.1,21.2,51.3,41.3,68.9,5.3-5.6,10.8-14.6,11.6-22.3,2.1-18.7-15.3-42.3,10.1-52,2.8-1.1,12.1-2.6,13.6-4.2h0Z"/>
    </g>
  </g>
</svg>