<?xml version="1.0" encoding="UTF-8"?>
<svg id="Capa_1" data-name="Capa 1" xmlns="http://www.w3.org/2000/svg" viewBox="0 0 44.24 43.35">
  <defs>
    <style>
      .cls-1 {
        fill: #fff;
      }
    </style>
  </defs>
  <path class="cls-1" d="M9.3,0h25.64c2.56,0,4.88,1.02,6.56,2.68,1.69,1.65,2.74,3.92,2.74,6.43v25.13c0,2.51-1.04,4.78-2.74,6.43-1.68,1.66-4,2.68-6.56,2.68H9.3c-2.56,0-4.88-1.02-6.56-2.68-1.69-1.65-2.74-3.92-2.74-6.43V9.11c0-2.51,1.04-4.78,2.74-6.43C4.42,1.02,6.74,0,9.3,0ZM35.64,7.11c.5,0,.92.41.92.9s-.42.9-.92.9-.92-.4-.92-.9.41-.9.92-.9ZM22.12,9.57c6.82,0,12.35,5.42,12.35,12.1s-5.53,12.1-12.35,12.1-12.35-5.42-12.35-12.1,5.53-12.1,12.35-12.1ZM32.7,21.68c0-5.72-4.74-10.37-10.58-10.37s-10.58,4.65-10.58,10.37,4.74,10.37,10.58,10.37,10.58-4.65,10.58-10.37ZM34.94,1.74H9.3c-2.07,0-3.95.83-5.32,2.16-1.36,1.34-2.2,3.18-2.2,5.21v25.13c0,2.03.85,3.87,2.2,5.21,1.37,1.33,3.25,2.16,5.32,2.16h25.64c2.07,0,3.95-.83,5.32-2.16,1.36-1.34,2.2-3.18,2.2-5.21V9.11c0-2.03-.85-3.87-2.2-5.21-1.37-1.33-3.25-2.16-5.32-2.16Z"/>
</svg>