<?xml version="1.0" encoding="UTF-8"?>
<svg id="Capa_1" data-name="Capa 1" xmlns="http://www.w3.org/2000/svg" viewBox="0 0 1040 1040">
  <defs>
    <style>
      .cls-1 {
        fill: #f8aa1b;
      }

      .cls-2, .cls-3, .cls-4 {
        fill: #0ba2c1;
      }

      .cls-5 {
        fill: #fff;
      }

      .cls-6 {
        font-size: 106.35px;
      }

      .cls-6, .cls-7 {
        fill: #2aae6c;
      }

      .cls-3, .cls-4 {
        font-size: 212.71px;
      }

      .cls-4 {
        letter-spacing: 0em;
      }

      .cls-8 {
        fill: #333;
      }

      .cls-9 {
        font-family: Montserrat-Bold, Montserrat;
        font-weight: 700;
      }

      .cls-10 {
        fill: #3b5866;
      }

      .cls-11 {
        fill: #359ad0;
      }
    </style>
  </defs>
  <g>
    <text class="cls-9" transform="translate(296.7 547.22)"><tspan class="cls-3" x="0" y="0">Bi</tspan><tspan class="cls-4" x="226.75" y="0">r</tspan><tspan class="cls-3" x="316.51" y="0">d</tspan><tspan class="cls-6" x="463.71" y="0">Scan</tspan></text>
    <g>
      <path class="cls-11" d="M417.72,296.88c-.02-.23-.03-.46-.05-.68-13.34-3.29-45.83-9.67-98.27-10.02,0,0-16.37,23.53-15.27,48.79,0,0-1.41,13.05,4.49,26.05,0,0,.57-44.18,23.09-50.65,0,0,34-16.12,85.42-12.84.18-.23.37-.44.59-.64Z"/>
      <polygon class="cls-1" points="199.74 317.93 177.03 319.39 170.58 332.46 162.4 339.03 187.55 344.62 203.14 338.2 199.74 317.93"/>
      <path class="cls-2" d="M343.01,267.1c-6.14-30.28-57.72-44.44-83.12-43.89,0,0-26.84.58-49.68,21.42,0,0-16.4,16.39-23.46,36.47,0,0-12.07,47.44-25.13,58.08,0,0,22.68-5.22,26.64-17.3,0,0,15.76-47.39,44.69-59.77,17.4-7.45,36.31-5.27,54.9-3.35,17.2,1.77,38.12,5.39,55.15,8.34Z"/>
      <path class="cls-8" d="M317.03,285.19l22.88-21.29-57.4-7.98s-43.86-9.41-69.43,20.39c0,0-16.37,17.45-20.33,34.14l-6.23,14.95s6.91.22,13.21-7.47c0,0,17.99-23.16,40.43-30.64,0,0,13.8-8.8,24.23-4.53,0,0,32.02,5.47,52.63,2.43Z"/>
      <path class="cls-1" d="M308.62,361.01s-12.33-24.77-3.95-48.88c0,0,5.92-17.89,14.56-25.81,0,0-38.23-1-54.6-3.55,0,0-4.19-2.58-12.79-.8-6.54,1.35-16.47,5.52-28.07,13.64-4.46,3.12-9.12,7.15-14.33,11.78-2.79,2.48-5.13,5.86-8.14,8.83-2.24,2.22-32.74,21.86-15.62,22.5,17.6.66,33.49,3.45,49.13,12.21,0,0,55.87,28.14,24.52,83.7,0,0-15.09,35.91-67.46,65.84,0,0-31.54,10.74-36.82,26.84l-6.11,15.1s43.72,1.55,91.01-28.42c0,0,81.25-46.47,68.68-153Z"/>
      <path class="cls-5" d="M267.4,264.12c-.38-3.01.9-5.78,5-6.07,4.79-.34,10.59,3.85,10.61,9.01.04,7.27-8.99,6.97-12.9,2.77-1.43-1.54-2.45-3.67-2.71-5.7Z"/>
      <path class="cls-7" d="M162.4,339.03s-49.49,36.67-76.23,107.92c0,0,2.11,3.59,28.36,5.88,0,0,57.97,11.57,117.64-25.32,0,0,27.63-17.9,35.72-31.26,0,0-.35-33.9-46.03-51.34,0,0-36.6-12.85-59.45-5.87Z"/>
      <path class="cls-2" d="M84.68,446.49l-36.27,108.48s87.3-22.78,114.14-35.83c0,0,.86-1.73,4.53-4.5,2.66-2,4.85-5.44,9.03-5.82,0,0,20.26-9.41,40.78-25.29,26.92-20.84,55.45-52.7,51.06-87.9,0,0-22.28,26.07-54.27,40.94-5.76,2.68-10.66,6.42-17.07,8.04,0,0-54.02,20.22-111.94,1.88Z"/>
      <path class="cls-8" d="M104.54,538.83c14.73-7.66,37.31-15.46,53.97-19.63,3.74-.02-3.32,10.34-8.14,22.53-11.52,28.02-17.76,43.2-27.33,75.45-10.57,33.34-15.15,67.29-32.48,97.54-16.2,24.7-17.59-3.08-15.18-17.28,5.35-34.36,29.19-93.93,37.47-123.93-1.55,2.09-17.68,41.88-25,58.87-9.29,20.81-33.66,93.51-61.03,88.34-6.95-16.53,12.24-50.22,19.57-66.06,10.68-21.58,42.93-87.76,52.1-107.87,1.45-2.93,2.88-5.39,5.34-7.41l.72-.56Z"/>
      <path class="cls-11" d="M115.12,566.09c-24.69,58.15-49.68,122.52-77.94,168.31-6.27,9.07-11.47,19.63-17.75,29.16-8.08,12.73-12.91,15.52-16.47,29.91-4.09,17,7.43,29.44,23.1,19.03,10.11-6.64,13.88-19.08,19.02-31.3,17.5-56.91,58.33-177.41,70.05-215.1v-.02Z"/>
      <path class="cls-10" d="M315.68,286.44l23.48-22.62s65.83,9.89,78.36,32.67c0,0-59.64-13.28-101.83-10.06Z"/>
      <path class="cls-8" d="M307.78,360.16s-2.19-43.32,19.08-49.84c0,0,35.31-17.75,87.75-12.58,0,0-32.45-11.21-99.24-11.34,0,0-15.55,23.4-14.63,48.43,0,0,1.54,12.47,7.04,25.32Z"/>
    </g>
  </g>
  <g>
    <path class="cls-2" d="M515.55,360.49c.13.06.42.27.54.29.22.04.53-.03.75,0l.31.06c-.24.1-.49.22-.72.34-.06.03-.3.16-.33.2-.07.09-.09.39-.16.53-.08.17-.32.36-.39.53-.06.15-.06.4-.13.53-.02.04-.43.35-.5.39-.04.02-.07.05-.11.02l-.49-.48c-.1.33-.14.69-.25,1.01-.12.34-.38.66-.37,1.06h.46l.28-.55.58.14c.04.16.21.36.25.51.05.19,0,.41.02.61.07.58.51,1.1.69,1.64.1.31.38,1.26.39,1.55.01.2-.11.45-.13.65-.05.51.06,1.1,0,1.6-.02.15-.11.31-.12.47-.02.18.02.41-.01.58-.03.16-.23.37-.26.55-.06.04-.54-.34-.62-.41-.01-.06.24-.44.26-.59.03-.27.03-.94,0-1.21-.01-.15-.09-.29-.1-.44-.33.26-.61.6-.76,1-.13.35-.15.8-.29,1.16s-.43.71-.66,1.02c.03.08.19.49.27.47.03,0,.36-.28.43-.32.2-.12.42-.23.63-.33-.06.61-.38,1.22-.79,1.66-.33.36-.65.42-.84.97-.06.18-.09.43-.12.62l-.61-1.12s-.46.11-.49.13c-.03.03-.21.42-.24.48-.11.29-.23.77-.16,1.07.03.14.2.32.22.48.07.05.42-.3.52-.34.06-.03.63-.17.62-.13-.03.16-.11.34-.13.5-.02.18.03.47-.01.61s-.37.41-.44.61c-.12.34-.1.74-.11,1.1l-.42,1.6c-.05.04-.53-1.05-.52-1.15-.04,0-.04.03-.05.07-.04.12-.05.25-.09.37-.06.17-.18.33-.24.5.08.16.13.36.24.51.12.17.55.48.57.64.01.11,0,.38,0,.49-.02.19-.2.87-.27,1.04-.08.2-.38.46-.41.61-.04.16,0,.38-.01.55-.02.14-.12.37-.12.49.01.24.35.71.38.99.05.41.04,1.45,0,1.87-.03.31-.26.81-.26,1.08,0,.13.11.35.12.5.02.2-.01.41.01.61.04.33.22.7.25,1.03.05.5-.05,1.08,0,1.57.02.19.12.39.13.59.03.3.03.85,0,1.15-.02.17-.1.35-.1.53,0,.15.09.31.1.46.03.33-.04.74,0,1.05.03.19.33.43.41.61.03.06.15.53.14.57,0,.05-.36.51-.42.56-.13.11-.47.2-.54.28-.09.1-.14.41-.26.53-.04.04-.55.32-.57.29.07-.61-.24-1.07-.16-1.68.05-.34.23-.73.26-1.08.05-.1.44-.28.53-.42.04-.06.14-.43.14-.51,0-.3-.24-.78-.25-1.09,0-.15.12-.39.12-.56,0-.32-.25-.71-.36-1-.05-.04-.43.28-.49.35.04.53.36,1.08.25,1.63-.01.07-.25.49-.3.55-.11.13-.35.27-.5.37-.03.18.02.39-.01.56-.03.15-.22.41-.28.57-.06.15-.07.31-.13.46.17.36.33.69.41,1.09l-.25.58c.16.35.34.68.38,1.08-.14.36-.41.72-.53,1.07-.07.19-.07.42-.16.6-.03.05-.37.49-.39.51-.08.05-.5.12-.52.14.1.17.16.37.27.54.09.14.37.43.39.56.04.32-.03.75-.14,1.04-.07.18-.23.38-.25.57-.02.16.01.35,0,.52-.04.33-.21.67-.12,1.05.01.05.45.37.51.38.12.02.34-.09.47-.09v-.56l.62.13s-.12.48-.13.57c-.03.33-.05,1.3,0,1.61.04.28.47.79.52,1.06.01.07-.1.61-.13.63-.58-.04-1.12.09-1.62.4l-.4,1.6c-.04.09-.4.27-.49.37-.07.07-.29.89-.31,1.04-.14,1.08.65,2.65.76,3.76.16.66.63,1.13,1.12,1.57.04.04.26.24.28.24.11.05.27,0,.39.03.04.01.51.35.54.38.04.04.5.97.54,1.07.07.19.09.43.16.63.1.31.2.61.31.92-.25.03-.7.29-.93.29-.15,0-.34-.12-.5-.12s-.31.13-.42.12c-.16,0-.51-.25-.7-.28-.11-.02-.34-.02-.45,0-.3.05-.83.49-1.12.55-.11.02-1.04.03-1.13,0s-.38-.36-.53-.42c-.4-.16-.75-.08-1.14-.14-.28-.04-1.36-.3-1.58-.42-.06-.04-.45-.33-.48-.37-.1-.14-.11-.42-.19-.59s-.7-.96-.84-1.06c-.14-.09-.34-.14-.47-.25-.09-.07-.35-.5-.38-.51-.18.01-.37-.02-.55,0-.16.02-.39.13-.55.11-.17-.02-1.22-.36-1.43-.44-.13-.05-.33-.16-.45-.23-.13-.08-.44-.38-.54-.41-.15-.05-.4,0-.58-.01-.38-.04-.65-.14-1.08-.1s-.65.24-1,.38c-.18.07-.38.1-.56.17-.17.06-1.05.54-1.12.53-.34-.15-.7-.39-1.05-.53s-.77-.17-1.11-.3c-.18-.07-.34-.2-.52-.27-.22-.08-.75-.21-.98-.23-.18-.02-.45.03-.61-.01-.21-.05-.82-.71-1.14-.83-.22-.08-1-.25-1.23-.28-.17-.02-.36.01-.52,0s-.33-.11-.5-.13c-.48-.05-.58.02-1.04-.24-.21-.12-.39-.3-.6-.42l-.51.12c-.15.45-.47.75-.79,1.08l-1.15.28c-.06-.19-.08-.4-.15-.59-.06-.16-.46-.98-.56-1.08-.11-.12-.36-.23-.49-.36-.16-.15-.28-.41-.43-.56-.31-.3-.81-.56-1.15-.85-.51-.44-.88-1.22-1.41-1.58-.23-.16-.88-.36-1.05-.52-.11-.11-.2-.55-.3-.72-.03-.06-.35-.46-.39-.5-.14-.12-.43-.18-.56-.29s-.25-.42-.41-.54c-.24-.18-.72-.33-1.01-.5-.68-.41-1.03-.93-1.54-1.48s-1.13-.92-1.51-1.57c-.22-.37-.32-.81-.51-1.16-.1-.19-.3-.35-.41-.54-.1-.17-.17-.38-.27-.55-.12-.2-.3-.37-.41-.57-.2-.35-.32-.74-.55-1.09-.58-.9-1.09-1.33-1.87-2-.39-.34-.62-.77-.95-1.08-.12-.12-.33-.22-.46-.33-.19-.16-.39-.44-.58-.57-.16-.12-.42-.21-.6-.32-.86-.55-1.2-1.25-1.83-1.98-.33-.38-.77-.72-1.1-1.1-.28-.32-.54-.81-.84-1.1-.13-.13-.35-.23-.49-.36-.19-.17-.4-.45-.59-.59-.16-.11-.37-.16-.55-.27-.32-.21-.62-.51-.95-.72-.21-.13-.44-.21-.64-.34-.37-.23-.71-.58-1.08-.81l-.15-.56v-.03c.12-.2.33-.46.42-.68.12-.31.14-.79.26-1.08.02-.05.42-.55.45-.56l.55.16c.08.36.21.76.49,1.02.16.15.4.09.59.2l.29,1.08c.37.09.75.19,1.14.12.2-.4.4-.78.66-1.15l.97-.73c.09-.02.43.12.55.12.15,0,.41-.14.55-.12.25.03.86.52,1.12.55.08.01.41,0,.48-.02.04-.02.42-.41.48-.47.16-.18.71-.9.73-1.1,0-.09-.14-.46-.16-.62-.02-.22-.03-.74,0-.95,0-.08.23-.55.28-.6.03-.03.52-.29.56-.29.18,0,.7.32.9.38.08.02.51-.19.57-.25.21-.23.34-.77.53-1.04-.02-.32-.25-.79-.25-1.1s.22-.78.26-1.12c.01-.11.02-.35,0-.45-.06-.26-.74-.86-.94-1.09-.07-.09-.39-.51-.4-.59-.1-.71.27-1.43.38-2.12.04-.11.51-.43.64-.51s.93-.49,1.01-.5c.11-.02.33.1.46.12.19.02.97-.17,1.17-.25.14-.05.39-.25.53-.26.17-.02.48.12.68.13.51.04.97-.21,1.51-.13.17.03.4.25.53.26.05,0,.43-.11.48-.14.12-.06.52-.49.63-.62.09-.1.25-.38.35-.44.24-.15.77-.15,1.08-.43.52-.46.43-.96.64-1.53.04-.12.36-.56.46-.62.06-.03.47-.15.53-.15.15,0,1.07.71,1.28.84.64.39,1.07.55,1.48,1.24.09.15.13.35.24.49.14.17.43.28.55.43.09.12.17.43.28.53.03.02.5.26.54.27.14.03.32,0,.46,0,.03-.02.1-.44.14-.53.11-.25.73-.85.98-.96.18-.08.45-.07.64-.15l.25-.52.53-.14c.1-.07.19-.42.32-.54.09-.08.46-.21.51-.28,0-.52.09-1.16.43-1.58.41-.52,1.14-.62,1.59-.97.04-.03.4-.47.41-.51.03-.07.03-.48,0-.57-.03-.14-.25-.4-.25-.53,0-.14.24-.43.25-.56.01-.11-.11-.38-.12-.52-.05-.47.06-.73.26-1.13.04-.03.48.37.57.4.1.04.45.04.55.01.04-.01.5-.37.52-.4.17-.23.34-.75.25-1.04-.03-.1-.4-.44-.41-.54,0-.11.26-.46.26-.52v-.61l.59.13c.04-.12.16-.46.25-.52s.4-.1.54-.15c.17-.06.34-.19.52-.25l.16-.55c.17-.07.41-.07.57-.15.15-.07.39-.35.53-.39.17-.05.39.02.56-.03.12-.04.43-.38.51-.38l.56.39c.22-.01.47.02.69,0,.17-.02.37-.12.53-.11.07,0,.52.1.56.15l.14.57-.54,1.06c.01.1.25.44.25.49v.67c.17-.02.41-.25.57-.22.14.02.34.22.48.25.18.04.43-.03.6.03.09.03.36.27.48.34.36.23.6.36,1.05.3.08-.01.43-.27.51-.35.19-.18.33-.42.51-.61l.42.57c.15,0,.36.11.5.11s.32-.1.48-.09c.05-.05-.23-.47-.23-.51v-.61c.36.16.6.38,1.03.29.14-.03.44-.47.6-.55.04-.02.52-.16.55-.16.12,0,.53.37.7.41.14.03.33,0,.48,0,.18.02.61.15.75.13.1-.02.33-.21.45-.25,0-.17-.1-.35-.1-.52s.11-.4.13-.57c.06-.04.51.44.64.39l1.54-.39.39-.56c.14,0,.48.18.59.11.03-.02.35-.47.39-.53.05-.09.2-.38.22-.47.05-.19-.02-.42.03-.59.01-.04.38-.5.41-.51h.59s.15.5.15.5c.33-.07.74-.2,1.01-.39.2-.14.37-.4.56-.55l.52.39.52-.38c.18.02.42.25.59.25.32,0,.76-.23,1.03-.39h.03ZM496.32,365.74v-.77c0-.07-.27-.43-.26-.56l.52-1.03-.1-.53c-.17,0-.34-.1-.5-.1-.18,0-.43.12-.62.13s-.4,0-.59,0l-.56-.39c-.08,0-.39.34-.51.38-.17.06-.41-.02-.57.02-.11.03-.35.31-.51.38s-.35.08-.51.14l-.15.51c-.34.21-.71.37-1.11.45l-.24.55-.52-.13v.48c0,.06-.26.42-.26.53,0,.11.35.41.39.53.02.08.02.46,0,.55,0,.06-.24.52-.28.57-.03.03-.48.4-.51.41-.06.03-.56.03-.63,0s-.49-.41-.52-.39c-.15.36-.27.56-.23.97.02.18.15.46.13.62-.02.12-.26.41-.25.52s.22.37.25.5c.02.1.02.55-.01.63-.01.03-.37.51-.4.53-.23.18-.76.34-1.05.52-.48.29-.75.63-.89,1.18-.08.31-.08.55-.09.86-.04.07-.46.2-.53.27-.07.07-.23.51-.29.55l-.53.14-.27.53c-.2.06-.46.07-.65.14-.24.09-.83.67-.94.9-.05.09-.12.56-.15.58-.18,0-.42.03-.6,0-.03,0-.48-.25-.51-.27-.13-.11-.19-.4-.31-.54-.13-.15-.41-.26-.52-.39-.1-.12-.19-.41-.29-.57-.43-.7-.83-.81-1.48-1.21-.23-.14-1.01-.79-1.22-.78-.07,0-.42.1-.48.15-.03.02-.35.43-.37.48-.14.28-.14.79-.27,1.08-.16.4-.61.73-1,.87-.12.04-.45.08-.51.13-.09.06-.32.44-.42.55-.09.11-.43.46-.53.52-.08.04-.46.14-.55.14-.18,0-.42-.24-.59-.27-.52-.07-1.03.19-1.61.13-.13-.01-.42-.14-.52-.12-.08.01-.38.23-.52.27-.19.07-.86.25-1.04.27-.2.02-.43-.16-.64-.12-.11.02-.81.39-.94.47-.21.13-.39.3-.59.44-.09.67-.49,1.42-.4,2.09.01.08.32.5.4.59.2.23.88.83.94,1.09.02.11.02.4,0,.51-.03.32-.27.84-.26,1.12,0,.26.29.87.26,1.08,0,.06-.49,1.01-.54,1.07s-.49.29-.56.3c-.18.01-.75-.33-.95-.39-.05,0-.5.23-.54.28-.04.06-.22.44-.23.52-.03.24-.02.83,0,1.08.01.14.15.46.13.55-.02.07-.26.49-.31.57-.1.16-.29.39-.42.53-.06.07-.47.49-.51.51-.07.03-.39.03-.48.02-.32-.03-.83-.43-1.15-.55-.17.02-.39.12-.55.12-.13,0-.45-.14-.54-.11-.24.26-.7.46-.93.71-.11.12-.34.52-.43.68-.04.07-.19.47-.22.49-.44.05-.84-.05-1.27-.13l-.27-1.11-.54-.11c-.08-.2-.32-.38-.4-.57-.04-.1-.1-.5-.14-.53l-.5-.1s-.37.45-.39.5c-.13.28-.15.77-.27,1.08-.08.22-.4.56-.38.76.01.17.09.39.21.51.43.41,1.01.69,1.5.99.38.23.73.6,1.11.83.15.09.37.16.51.25.18.12.39.42.57.57.15.13.36.24.49.36.3.28.55.77.82,1.08.33.39.79.74,1.13,1.13.65.75.98,1.46,1.89,2.02.16.1.38.16.52.27.19.13.37.4.56.56.15.13.36.23.49.36.33.32.56.75.95,1.08.78.67,1.33,1.14,1.9,2.04.22.35.35.81.57,1.14.11.17.29.33.4.52.1.17.16.38.27.55.1.15.28.3.37.45.21.35.32.84.55,1.23.38.65.9.88,1.38,1.41.56.61.86,1.12,1.6,1.58.29.18.85.37,1.08.55.13.1.27.45.4.55s.4.16.55.29c.07.06.37.45.42.53.08.14.19.6.27.68.16.16.86.37,1.1.54.53.39.9,1.14,1.44,1.61.32.28.77.51,1.07.8.16.16.27.4.43.56.13.13.43.26.54.38s.46.9.53,1.08c.04.09.11.51.17.52.27-.12.75-.12,1-.25.05-.03.5-.48.54-.54.06-.09.21-.52.26-.55l.56-.13c.1.01.42.31.53.38.09.06.51.28.59.29.17.04.4-.01.58.01.16.02.33.11.5.13s.35-.01.52,0c.22.02,1.01.19,1.21.27.3.12.89.75,1.1.8.14.04.35,0,.51.01.68.07,1.07.33,1.65.54.33.12.74.16,1.09.29s.68.33,1.01.5c.37-.12.72-.36,1.09-.5.18-.07.36-.09.53-.16.62-.23.83-.48,1.58-.42.21.02.4.11.59.13.17.02.45-.03.58.01.08.02.53.42.72.52s1.59.56,1.74.55c.16-.01.36-.11.53-.13.15-.02.33,0,.49,0,.11.03.32.45.43.55.14.12.41.17.56.3.13.12.69.87.77,1.03s.11.47.18.57c.02.02.42.34.46.36.19.1,1.36.39,1.61.42.38.05.69-.03,1.08.13.21.09.38.33.59.43.31-.02.75.06,1.04,0s.83-.5,1.12-.55c.11-.02.4-.01.52,0,.19.03.5.25.67.25.13,0,.29-.12.39-.13.14,0,.39.15.58.13.22-.02.54-.22.78-.23-.1-.32-.21-.63-.31-.95-.05-.16-.06-.34-.12-.5-.07-.19-.42-.93-.54-1.07-.04-.05-.46-.37-.5-.38-.15-.05-.32.03-.45-.05-.27-.37-.9-.77-1.12-1.15-.08-.14-.21-.47-.26-.63-.32-1.05-.47-2.21-.8-3.27-.07-.54.17-1.04.27-1.56l.56-.49.4-1.6c.33-.15.73-.37,1.09-.42.14-.02.51.04.56-.06.02-.03.1-.41.1-.45-.11-.31-.41-.69-.49-.98-.07-.23-.05-1.45-.03-1.75.01-.16.08-.3.1-.45l-.42-.12v.52l-.59.11-.58-.43c-.09-.37.09-.71.12-1.04.02-.18-.02-.39,0-.56.02-.15.21-.41.28-.58.1-.28.19-.71.15-1-.02-.12-.33-.48-.42-.63-.1-.17-.16-.36-.27-.52,0-.06.49-.13.57-.18.03-.02.34-.42.37-.46.1-.17.1-.43.17-.62.12-.34.39-.7.52-1.05-.04-.4-.21-.72-.4-1.07l.27-.58c-.05-.16-.08-.34-.13-.49-.05-.13-.27-.47-.27-.57,0-.07.11-.45.14-.54.06-.15.24-.4.27-.52.04-.17-.02-.4.01-.58.02-.05.46-.32.55-.43.53-.67.11-1.37-.03-2.1l.57-.48c.17.29.44.8.44,1.13,0,.17-.13.4-.12.58.02.29.25.76.25,1.06,0,.05-.12.53-.14.56-.07.09-.51.32-.55.4-.06.52-.32,1-.26,1.53.03.36.25.71.16,1.1.12-.08.35-.14.44-.23.12-.11.19-.46.29-.55.08-.08.42-.17.55-.29.07-.06.36-.46.36-.53.03-.42-.32-.76-.53-1.08-.03-.35.03-.74,0-1.08-.02-.16-.12-.36-.12-.5s.1-.39.12-.55c.03-.28.02-.77,0-1.05-.02-.22-.11-.42-.13-.62-.05-.51.05-1.1,0-1.61-.03-.3-.21-.68-.25-.99-.03-.2.01-.41-.01-.61-.02-.16-.13-.38-.13-.53,0-.28.23-.79.26-1.12.04-.4.05-1.41,0-1.81-.03-.28-.38-.78-.39-1.02,0-.13.11-.38.13-.53.02-.17-.03-.39.01-.55s.34-.4.41-.57c.11-.29.31-1.21.27-1.5-.02-.16-.43-.48-.56-.6l-.26-.58c.18-.37.36-.74.39-1.16l.53,1.18.05-.03c.09-.46.31-.99.37-1.44.04-.36-.02-.72.11-1.07.07-.18.38-.42.42-.57.07-.27-.04-.73.14-1.03-.15.04-.35.05-.49.12-.1.05-.54.45-.59.41-.04-.18-.22-.41-.26-.58-.11-.55.17-1.17.4-1.65l.57-.16s.05.02.07.05c.18.26.27.69.5.93.02-.28.18-.74.36-.96.12-.14.42-.28.58-.45.35-.38.67-.96.74-1.48-.36.19-.71.4-1.03.66l-.28-.6c.23-.36.51-.67.66-1.08.21-.58.18-1.15.58-1.68.07-.09.43-.46.51-.51.03-.02.03-.06.07,0,.03.05.14.53.15.61.03.26.03.87,0,1.12-.02.17-.28.52-.27.62l.45.31c.06.02.04-.01.05-.04.04-.07.17-.31.18-.38.03-.17,0-.37.01-.55.02-.19.14-.4.16-.6.06-.51-.04-1.09,0-1.6.02-.17.13-.43.12-.58-.01-.25-.31-1.29-.4-1.57-.18-.53-.62-1.05-.67-1.63-.02-.17.02-.35,0-.52-.01-.07-.21-.49-.26-.53-.09-.08-.35-.07-.47-.12l-.3.53h-.61c.07-.43.3-.79.44-1.19.11-.33.16-.71.27-1.04.04-.05.03-.02.07,0,.13.09.37.43.48.48.04.02.05.02.1,0,.02-.01.41-.31.43-.34.07-.11.08-.38.13-.52.07-.19.32-.38.4-.55s.07-.4.16-.57l.82-.41s-.17-.06-.21-.06c-.19-.01-.44.03-.62,0-.13-.03-.41-.25-.5-.25-.35.19-.66.33-1.06.38l-.58-.25-.53.39-.52-.39c-.45.55-.95.8-1.64.95l-.15-.55h-.49s-.36.46-.38.49c-.06.16.02.43-.03.62-.02.08-.2.41-.25.5-.11.18-.29.35-.39.54l-.56-.12-.42.54-1.67.4-.49-.34c.01.14-.09.31-.09.44,0,.11.16.51.12.57l-.55.28c-.21,0-.44-.1-.64-.11-.17-.01-.43.03-.58,0-.19-.05-.57-.43-.75-.41-.07,0-.42.11-.48.14-.16.09-.39.51-.54.54-.09.02-.46.01-.55,0-.07-.02-.46-.25-.48-.22-.07.41.12.68.3,1.02-.39.11-.72.19-1.12.02-.15-.07-.29-.38-.41-.51-.07.03-.32.42-.41.5-.08.08-.52.41-.6.42-.41.05-.7-.08-1.03-.28-.13-.08-.46-.37-.55-.4-.15-.04-.4.02-.58-.01-.14-.03-.34-.19-.48-.24l-.59.28Z"/>
    <path class="cls-2" d="M496.32,365.74l.59-.28c.14.05.34.21.48.24.17.04.42-.03.58.01.09.03.43.32.55.4.34.2.63.34,1.03.28.08-.01.52-.34.6-.42.09-.09.34-.48.41-.5.12.13.26.44.41.51.39.17.72.09,1.12-.02-.17-.34-.36-.61-.3-1.02.03-.03.41.21.48.22.09.02.46.02.55,0,.16-.03.38-.45.54-.54.06-.03.41-.14.48-.14.19-.02.56.36.75.41.16.04.41,0,.58,0,.21.02.43.1.64.11l.55-.28c.04-.06-.12-.46-.12-.57,0-.13.11-.3.09-.44l.49.34,1.67-.4.42-.54.56.12c.1-.19.28-.36.39-.54.05-.09.23-.42.25-.5.05-.19-.03-.47.03-.62.01-.03.35-.46.38-.48h.49s.15.54.15.54c.69-.15,1.19-.4,1.64-.95l.52.39.53-.39.58.25c.4-.06.71-.19,1.06-.38.08,0,.37.23.5.25.18.04.42,0,.62,0,.04,0,.2.02.21.06l-.82.41c-.08.16-.08.41-.16.57-.08.17-.33.35-.4.55-.05.14-.06.41-.13.52-.01.02-.4.32-.43.34-.04.02-.05.02-.1,0-.11-.05-.34-.39-.48-.48-.03-.02-.02-.05-.07,0-.11.34-.16.71-.27,1.04-.13.4-.37.76-.44,1.19h.61l.3-.53c.12.05.38.04.47.12.05.04.24.46.26.53.03.16,0,.35,0,.52.05.57.49,1.09.67,1.63.09.27.39,1.32.4,1.57,0,.15-.11.41-.12.58-.05.51.05,1.1,0,1.6-.02.19-.13.41-.16.6-.02.17.02.38-.01.55-.01.07-.14.3-.18.38-.02.03.01.06-.05.04l-.45-.31c-.02-.1.25-.45.27-.62.03-.25.02-.86,0-1.12,0-.08-.12-.56-.15-.61-.03-.06-.04-.02-.07,0-.08.05-.44.42-.51.51-.41.53-.37,1.1-.58,1.68-.15.4-.43.72-.66,1.08l.28.6c.32-.26.67-.46,1.03-.66-.07.52-.38,1.1-.74,1.48-.16.17-.46.31-.58.45-.18.22-.34.68-.36.96-.22-.24-.31-.68-.5-.93-.02-.03-.03-.06-.07-.05l-.57.16c-.23.48-.52,1.1-.4,1.65.04.17.22.4.26.58.05.04.49-.36.59-.41.14-.06.34-.07.49-.12-.18.3-.07.75-.14,1.03-.04.14-.35.39-.42.57-.13.35-.07.71-.11,1.07-.05.45-.28.98-.37,1.44l-.05.03-.53-1.18c-.03.43-.21.79-.39,1.16l.26.58c.13.12.54.44.56.6.04.29-.16,1.21-.27,1.5-.07.17-.37.42-.41.57s0,.38-.01.55c-.02.15-.14.4-.13.53.02.24.36.74.39,1.02.05.39.04,1.4,0,1.81-.03.32-.26.83-.26,1.12,0,.15.11.37.13.53.02.2-.01.41.01.61.04.32.22.69.25.99.05.5-.05,1.1,0,1.61.02.21.12.4.13.62.02.28.02.77,0,1.05-.02.17-.12.41-.12.55s.1.34.12.5c.03.34-.03.73,0,1.08.2.32.55.67.53,1.08,0,.07-.3.47-.36.53-.13.11-.47.2-.55.29-.09.09-.17.44-.29.55-.1.09-.33.15-.44.23.09-.39-.13-.74-.16-1.1-.05-.53.2-1.01.26-1.53.04-.08.48-.3.55-.4.02-.03.14-.51.14-.56,0-.3-.24-.76-.25-1.06-.01-.18.12-.42.12-.58,0-.34-.27-.84-.44-1.13l-.57.48c.14.72.56,1.42.03,2.1-.09.11-.54.38-.55.43-.03.18.03.41-.01.58-.03.11-.21.37-.27.52-.03.09-.15.47-.14.54,0,.1.22.44.27.57.06.15.08.33.13.49l-.27.58c.18.35.36.67.4,1.07-.14.34-.4.7-.52,1.05-.07.2-.07.45-.17.62-.02.04-.34.45-.37.46-.08.05-.56.12-.57.18.11.16.17.35.27.52.09.15.41.51.42.63.04.29-.05.72-.15,1-.06.17-.25.42-.28.58-.03.17.01.38,0,.56-.03.33-.21.68-.12,1.04l.58.43.59-.11v-.52l.42.12c-.02.15-.08.3-.1.45-.02.29-.04,1.52.03,1.75.09.3.38.68.49.98,0,.03-.08.41-.1.45-.05.1-.42.04-.56.06-.36.05-.76.27-1.09.42l-.4,1.6-.56.49c-.09.53-.34,1.02-.27,1.56.33,1.05.48,2.22.8,3.27.05.15.18.49.26.63.22.38.84.78,1.12,1.15.13.07.3,0,.45.05.05.01.47.33.5.38.11.14.47.88.54,1.07.06.16.07.34.12.5.1.32.21.63.31.95-.24.01-.56.21-.78.23-.19.02-.44-.14-.58-.13-.1,0-.26.13-.39.13-.17,0-.48-.22-.67-.25-.12-.02-.4-.02-.52,0-.3.05-.83.49-1.12.55s-.73-.02-1.04,0c-.21-.1-.37-.34-.59-.43-.39-.16-.71-.08-1.08-.13-.25-.03-1.43-.32-1.61-.42-.04-.02-.44-.33-.46-.36-.07-.1-.1-.41-.18-.57s-.64-.91-.77-1.03c-.14-.13-.42-.18-.56-.3-.11-.1-.32-.52-.43-.55-.15,0-.33-.02-.49,0-.17.02-.37.12-.53.13-.15.01-1.55-.45-1.74-.55s-.64-.5-.72-.52c-.13-.04-.41,0-.58-.01-.19-.02-.38-.11-.59-.13-.76-.06-.96.19-1.58.42-.17.06-.36.09-.53.16-.37.14-.72.38-1.09.5-.33-.17-.66-.37-1.01-.5s-.76-.17-1.09-.29c-.58-.22-.97-.48-1.65-.54-.16-.02-.37.02-.51-.01-.21-.05-.8-.69-1.1-.8-.2-.08-.99-.25-1.21-.27-.17-.02-.35.01-.52,0s-.33-.11-.5-.13c-.18-.02-.41.02-.58-.01-.09-.02-.5-.24-.59-.29-.12-.07-.44-.37-.53-.38l-.56.13s-.19.45-.26.55c-.04.06-.49.52-.54.54-.24.13-.73.13-1,.25-.05-.01-.13-.43-.17-.52-.07-.19-.42-.96-.53-1.08s-.4-.25-.54-.38c-.15-.15-.27-.4-.43-.56-.3-.29-.75-.53-1.07-.8-.54-.47-.92-1.22-1.44-1.61-.23-.17-.94-.38-1.1-.54-.08-.08-.19-.54-.27-.68-.05-.08-.35-.47-.42-.53-.15-.13-.42-.18-.55-.29s-.26-.45-.4-.55c-.23-.18-.79-.37-1.08-.55-.74-.46-1.05-.97-1.6-1.58-.48-.53-1-.76-1.38-1.41-.23-.38-.33-.88-.55-1.23-.09-.15-.27-.3-.37-.45-.11-.17-.17-.39-.27-.55-.11-.19-.29-.35-.4-.52-.21-.33-.35-.79-.57-1.14-.57-.9-1.12-1.37-1.9-2.04-.39-.34-.62-.76-.95-1.08-.13-.13-.35-.23-.49-.36-.18-.16-.37-.42-.56-.56-.14-.1-.36-.17-.52-.27-.91-.56-1.24-1.27-1.89-2.02-.34-.39-.8-.74-1.13-1.13-.27-.32-.52-.81-.82-1.08-.13-.12-.35-.23-.49-.36-.18-.16-.4-.45-.57-.57-.13-.09-.35-.15-.51-.25-.38-.23-.72-.6-1.11-.83-.5-.3-1.07-.58-1.5-.99-.12-.12-.2-.34-.21-.51-.02-.2.3-.54.38-.76.12-.31.14-.8.27-1.08.02-.05.36-.49.39-.5l.5.1s.1.44.14.53c.08.19.32.37.4.57l.54.11.27,1.11c.43.08.83.18,1.27.13.02-.02.18-.42.22-.49.09-.16.32-.56.43-.68.23-.25.69-.44.93-.71.09-.03.42.11.54.11.17,0,.38-.11.55-.12.32.12.83.52,1.15.55.09,0,.41.01.48-.02.04-.02.45-.44.51-.51.13-.14.32-.38.42-.53.06-.09.3-.5.31-.57.02-.09-.11-.41-.13-.55-.02-.25-.03-.84,0-1.08,0-.07.19-.46.23-.52.04-.05.49-.28.54-.28.21.06.77.4.95.39.07,0,.51-.24.56-.3s.53-1.01.54-1.07c.03-.21-.25-.82-.26-1.08,0-.28.23-.8.26-1.12.01-.12.02-.41,0-.51-.06-.26-.74-.86-.94-1.09-.08-.09-.39-.51-.4-.59-.09-.67.31-1.43.4-2.09.2-.14.38-.31.59-.44.14-.08.83-.45.94-.47.21-.04.44.14.64.12.18-.02.85-.21,1.04-.27.13-.05.44-.26.52-.27.1-.02.39.11.52.12.57.06,1.08-.2,1.61-.13.17.02.41.26.59.27.09,0,.47-.1.55-.14.1-.05.44-.41.53-.52.1-.11.33-.49.42-.55.07-.05.39-.08.51-.13.39-.14.84-.47,1-.87.12-.29.13-.8.27-1.08.02-.05.34-.45.37-.48.06-.04.4-.14.48-.15.2,0,.99.64,1.22.78.65.4,1.05.51,1.48,1.21.1.16.18.44.29.57.11.14.39.24.52.39.12.14.18.43.31.54.03.03.48.27.51.27.17.04.41,0,.6,0,.03-.02.11-.49.15-.58.12-.23.71-.8.94-.9.19-.07.45-.08.65-.14l.27-.53.53-.14c.07-.04.23-.49.29-.55.07-.07.49-.2.53-.27.01-.31.01-.55.09-.86.14-.55.41-.89.89-1.18.28-.17.81-.34,1.05-.52.03-.02.39-.5.4-.53.03-.08.03-.53.01-.63-.03-.13-.24-.4-.25-.5,0-.11.24-.4.25-.52.02-.16-.11-.44-.13-.62-.04-.41.08-.61.23-.97.03-.02.44.37.52.39s.57.02.63,0c.03-.01.48-.38.51-.41.05-.06.27-.51.28-.57.01-.1.01-.47,0-.55-.03-.12-.38-.42-.39-.53,0-.11.26-.47.26-.53v-.48l.52.13.24-.55c.4-.08.77-.24,1.11-.45l.15-.51c.16-.06.36-.07.51-.14s.4-.35.51-.38c.16-.05.4.03.57-.02.12-.04.43-.38.51-.38l.56.39c.19,0,.4.02.59,0,.2-.02.44-.13.62-.13.16,0,.34.1.5.1l.1.53-.52,1.03c-.01.13.26.49.26.56v.77ZM486.35,381.48c.04.11,0,.86,0,1.05,0,.02-.05.07-.03.13l.05.05.05-.05v-1.08s-.05-.05-.03-.11c0,0,.11-.1.14-.07l.08.06v.21c.14.02,0-.22.18-.22.05,0,.5.07.51.09.03.03-.04.22.12.19.09-.02-.02-.29.02-.36-.22.03-.46-.03-.67-.03-.07,0-.14.04-.23.03-.08,0-.29-.12-.31-.1-.08.09.13.2.13.21ZM484.81,381.64c.03.24-.02.53,0,.77h.03s.03-.1.03-.11v-.72c0-.06-.1-.26.1-.13v.62s.05.07.03.11h.03s0-.71,0-.71c.17-.11.41-.05.58.04.08.04.11.11.16.17.02.03.06.03.07.04.04.07-.06.25.07.22.04-.2-.07-.31-.2-.44v-.05s.1-.05.1-.05l-.05-.04-1.14-.03-.05.09c.18.01.21.03.23.21ZM486.03,381.61s-.19-.27-.21-.09c.04,0,.17.12.19.14.04.07,0,.24.11.22.03-.16-.01-.18-.08-.28ZM486.58,382.72v-.56c.08-.09.4-.03.5.02.08.04.04.25.19.2-.01-.14.01-.29.02-.43,0-.06.04-.08-.03-.13-.11-.02-.1.22-.08.28l-.07.02c0-.18-.46-.04-.52-.14l-.04-.22-.04,1c-.06.14-.17-.05-.24-.04-.04,0-.11.11-.19.09,0,.01.02.04.03.05.19.09.95-.06,1.2.11.07-.04.03-.12.05-.17,0-.01.14-.14.13-.24l-.08-.05-.24.3c-.09,0-.58-.02-.6-.08ZM489.76,381.95c-.05.05-.4-.24-.39-.08,0,.05.2.05.13.26-.09.12-.41,1.03-.47,1.06-.03.02-.19-.05-.26,0,.06.11.21.11.32.16.02,0,.24.2.24.06,0-.02-.13-.11-.15-.15-.06-.13.31-.7.32-.88h.13s.03.13.03.13c.08-.17-.17-.44,0-.51l.1.15v-.2ZM482.46,382.2s-.03-.06-.06-.09l-.03.07.94.94c.04.09-.19.05-.21-.02,0,.04-.21.24-.1.26.07.01.13-.09.18-.11.05-.02.36-.07.36-.13-.04-.07-.13-.03-.17-.05-.15-.07-.72-.7-.9-.86ZM482.48,382.48c-.06-.11-.16-.22-.28-.26-.14.03-.06,1.08-.09,1.26-.02.13-.13.12-.13.25.1.04.15-.06.2-.08.09-.03.2-.01.26-.1,0-.12-.18-.07-.2-.08l.02-.36.58-.23c.04-.06-.3-.36-.36-.39,0,.02,0,.07.03.12.04.06.12.08.16.13,0,.11-.3.23-.37.21-.08-.02-.07-.51,0-.52.05.04.14.05.18.07ZM490.15,383.49c-.15.07-.25.09-.12.29.14-.05.13-.17.12-.29.02,0,.06,0,.08-.03l.38-.98h.29c-.03-.06-.14-.13-.2-.15-.03-.01-.08.02-.13,0-.07-.03-.1-.16-.23-.12-.01.09.1.12.12.19.05.17-.2.5-.22.69-.05.12-.26.03-.2.21.02.06.08.05.09.19ZM485.13,382.28c-.04-.05-.06,0-.07.05-.02.14,0,.31.03.44l-.43.03c0,.17.16.07.25.07.12,0,.24,0,.36,0,.18-.02.33-.12.51-.09l-.03-.16c.13.2.49-.22.3-.33-.01.12-.07.3-.23.3-.03-.02.23-.29.03-.3-.04.37-.39.47-.72.43v-.43ZM491.3,382.71c-.1,0-.15-.07-.21-.13l-.08.08s.2.1.16.23c-.01.04-.08.04-.1.08-.08.11-.15.32-.21.43-.07.13-.21.24-.18.4l.62-1.08ZM480.24,383.72c0-.11-.01-.31,0-.41,0-.03.16-.32.18-.34.18-.24.35-.19.62-.22l.19.19.05-.11c-.08-.01-.12-.18-.15-.18-.04,0-.08.09-.19.03-.03-.01-.03-.06-.05-.06-.14-.03-.55.18-.62.3-.02.05-.01.1-.03.15-.02.04-.07.04-.08.06-.01.05-.02.57,0,.6.02,0,.05,0,.06,0,.01.16.11.28.23.37.44.32,1.18.03,1.25-.52l-.1-.05c-.08.5-.55.58-.98.62-.07-.11-.18-.17-.27-.27-.06-.07,0-.09-.13-.15ZM491.24,383.17c-.15.07-.14.2-.22.32-.08.13-.18.27-.26.4-.05.09,0,.19-.18.16-.02.11.07.04.12.07.02.02.08.15.19.16.06-.19-.16-.11-.05-.38.09-.24.32-.42.4-.73.01,0,.04.01.06,0,0,0,.08-.19.13-.19.08-.01.19.09.21-.05l-.3-.12c.08.2-.03.15-.08.23-.03.05,0,.09-.02.13ZM489.86,382.87c-.1-.1-.06.29-.03.33.12-.06.06-.23.03-.33ZM479.39,383.66c-.09.04-.21.04-.29.15.08.12.2-.02.26,0,.12.03.63.8.8.9.08.14-.11.23-.11.25-.01.13.28-.03.26-.13-.22-.28-.43-.58-.66-.85-.08-.09-.28-.22-.26-.32.16-.06.25-.08.33-.26l-.13-.03c-.03.13-.18.16-.2.29ZM492.3,383.39c-.14-.03-.39.02-.54,0,0,.08,0,.06.05.07.12.02.37.05.48.08.17.05.47.36.41.54,0,.03-.2.26-.07.26.08,0,.16-.19.21-.25v-.05c-.13-.02-.1-.11,0-.08.03,0,.04.07.1.05.07-.25-.06-.12-.13-.15-.04-.02-.15-.22-.21-.28-.04-.04-.27-.19-.3-.2ZM491.73,383.46c-.07-.06-.44.28-.39.39l.32-.29.07-.11ZM491.96,383.56c-.26.03-.57.38-.52.66.11.03.05-.1.07-.17.02-.05.1-.11.1-.18l.35-.31ZM480.51,383.59c-.15-.03-.1.06-.04.16.04.08.27.32.35.3l.05-.06c-.18,0-.35-.24-.36-.39ZM479.67,383.74s-.04-.06-.06-.09c-.04-.01-.07,0-.05.05.02.05.25.32.3.39.09.11.32.41.41.48.03.03.07.04.11.03.04.04-.12.18-.02.2.02,0,.39-.22.23-.29-.05.07-.22.08-.27.02-.01-.01,0-.06-.02-.08-.23-.23-.41-.49-.63-.72ZM490.65,383.79c-.09-.03-.06.08-.12.09-.02,0-.3-.09-.24.02.08.07.16.13.28.12l.09-.23ZM491.37,384.48c0-.11.02-.22-.1-.26-.11.21.17.55.35.65.14.08.34.12.5.12.04,0,.04,0,.07-.04l-.05-.12c-.29.03-.6-.07-.67-.38l-.1.02ZM478.41,384.64s.22-.05.02-.13l-.41.44c.07.1.22-.03.32.03l.81.81c.06-.05.06-.05.01-.11-.15-.18-.37-.34-.54-.49-.11-.1-.23-.33-.37-.25,0-.08.07-.25.16-.19.01.06.04.11.08.16.08.09.38.37.48.44.03.03.04.06.1.05.03-.15-.06-.07-.09-.11-.04-.05-.04-.05-.11-.12-.07-.06-.49-.48-.46-.53ZM493.07,385.79s.05.01.06,0c.01-.01.03-.15.05-.2.03-.07.11-.1.09-.19-.14.01-.4-.23-.31-.36.01-.02.35-.13.36-.13.09,0,.13.07.21.07l.04-.19.13-.04c-.33-.04-.61.15-.91.25-.22.07-.36.12-.59.12s-.01.1.02.13c.03.04.09.2.12.21.03.02.15.03.12-.04-.08-.06-.03-.18-.16-.15.05-.13.11-.01.15-.01.02,0,.17-.12.3-.1.06,0,.35.32.36.38.02.06,0,.2-.02.26-.1.04-.08.09-.12.1-.06.02-.16-.12-.18-.02-.02.11.13.15.2.18-.02.12.04.08.07.12.04.06,0,.14.13.11.03-.2-.1-.18-.2-.23.01-.08.08-.16.1-.26ZM479.36,385.76s.04,0,.06-.02c.03-.02.48-.47.49-.5.08-.16-.03-.33-.11-.47l-.07.08c.19.27-.19.67-.44.74,0,.08.07.08.07.16-.14.07-.28.04-.26.3.04.05.26-.23.26-.3ZM477.42,386.09c-.03-.3.2-.48.49-.43l-.26-.15c-.06.02-.2.16-.25.22-.11.12-.18.34-.22.39-.02.02-.26.09-.17.24.15-.08.17-.14.34-.1.08.15.39.32.56.39,0,.01,0,.04.02.07.04.04.3.15.31.22.01.06-.11.4.07.25.06-.05.08-.17.1-.24.02,0,.05,0,.06,0,.05-.15.37-.43.33-.6-.01-.05-.2-.3-.26-.33-.11-.06-.19-.03-.28-.11-.1-.1-.06-.17-.08-.27,0-.03-.17-.17-.23-.12-.01.1.1.08.15.16.07.14-.04.13-.05.15-.04.18.02.23-.15.41-.04.04-.12.07-.18.06.03-.14-.06-.09-.14-.13-.03-.01-.03-.11-.15-.07ZM494.29,386.25s.06,0,.1-.01c.17-.06.28-.28.4.09.02.05.09.37.09.4,0,0-.11.11-.12.11-.06.03-.16.01-.17.07.47.07.43-.35.3-.67-.04-.1-.16-.2-.19-.25-.02-.04-.1-.31-.11-.32-.28.05.12.34.07.39-.08,0-.27.07-.33.12-.04.03-.02.06-.03.08-.02,0-.07,0-.11,0-.07.02-.12.13-.22.13.08.14.1.24.1.39l.11-.2.07.12c-.1.1-.15.16-.12.31.12.04.04-.14.07-.16.09.06.32-.09.21-.16-.07-.04-.16-.08-.21-.18-.06-.16.03-.11.08-.18.02-.02.01-.05.02-.06ZM478.67,385.8s-.2,0-.24,0c-.05,0-.13-.03-.11.05.09.08.21,0,.33.07.07.04.07.16.17.15.02-.17-.1-.15-.12-.17-.02-.02,0-.07-.01-.09ZM494.06,386.18c-.16-.05-.16.06-.2.08-.07.04-.2.08-.27.12-.08.05-.11.16-.28.07-.07-.03-.05-.1-.11-.11-.02.24.24.38.26.62.15.02.03-.22.07-.26l.23-.1.19-.16c-.24-.05-.49.49-.59.12.04-.07.1-.01.14-.02.05-.01.13-.12.22-.11l.33-.24ZM476.96,386.54c-.05-.05-.3.41-.29.44.03.17.14-.05.16-.06.14-.07.14.05.17.07.35.2,1.09.36.83.9-.04.08-.13.11-.13.22h-.39c.04.12.19.05.27.07.02,0,.02.12.15.05.04-.02.23-.32.25-.38.18-.64-.65-.78-1.05-1.05l.02-.26ZM484.02,388.22s1-.12,1.16-.13c.83-.05,1.7.02,2.52.1.07,0,.14.03.2.06l.05-.08c-.23-.37-.25-.64-.69-.82-.69-.28-1.84-.28-2.53,0-.39.16-.44.29-.61.64-.04.08-.14.12-.11.24ZM493.83,387.27c-.1-.03-.08.12-.06.17,0,.02.05.02.06.05.02.05.06.22.15.2.08-.02-.02-.3.05-.38l-.07-.03c-.04.22-.13.19-.13-.02ZM476.57,387.63c-.19-.01.03-.22-.16-.23-.01.01-.08.29-.11.35-.02.03-.15.11-.15.21.12.07.14-.07.21-.08.12-.02.21.15.35.12.01-.11-.36-.19-.36-.25l.07-.11.15.07.02-.07ZM494.18,387.83s-.14-.03-.12.04c.03.12.18.26.16.41.13,0,.07-.14.13-.22.03-.02.26-.02.31,0,.09.03.28.5.25.59,0,.01-.19.21-.2.21-.1.06-.15-.17-.22-.09-.03.03.04.21.12.2.04,0,.07-.01.1-.03.2-.12.48-.57.7-.71-.11-.14-.18.12-.22.15-.02.01-.14.07-.16.06-.05-.07-.22-.31-.12-.38l.41-.04.08.14.07.02c0-.06.13-.21.18-.2.02,0,.07.06.02.08l-.13.16s.07.02.08.02c.02,0,.25-.27.25-.31-.04-.07-.06-.03-.09-.03-.2,0-1.48.04-1.55,0-.02-.01-.02-.06-.04-.07ZM477.12,387.93c-.06-.03-.13,0-.19,0,.02.07.1.06.16.08.07.03.12.15.23.03-.09,0-.19-.1-.21-.1ZM476.21,388.38c-.09-.09-.18.18-.2.2-.16.26-.13.33-.17.6,0,.02-.22.13-.07.24.26-.14.1-.17.14-.29.03-.1.11-.1.11-.13,0-.03-.03-.09-.02-.14.01-.06.09-.28.18-.23l-.07-.11s.16-.08.1-.15ZM476.73,388.51l-.13.21c.05.09.09.14.06.25,0,.01-.09.18-.1.18-.06.03-.19-.05-.16.07h.36c-.04-.23.03-.48-.03-.72ZM488.05,388.62c-.15-.02-.31,0-.47,0-.14-.02-.24-.08-.36-.1-.52-.06-2.06-.06-2.56,0-.1.01-.14.08-.23.1-.14.02-.32-.02-.46,0-.11.02-.22.12-.15.23l-.16-.03c-.06.14-.47.66-.45.77,0,.03.06.08.1.07l.67-.19c1.52-.3,2.92-.23,4.42.1.11.02.32.19.37,0l-.49-.78-.18.06-.04-.23ZM495.27,388.55l-.43.41-.03.15c.12-.16.28-.29.4-.44.03-.04.08-.03.05-.12ZM494.78,389.33c0-.14.02-.31-.16-.29-.04.04.05.31.16.29ZM477.42,389.17c-.05-.05-.16.03-.18.1-.02.09.04.17,0,.23h-.15s.11.33.11.33c.07,0,.1-.37.12-.43.01-.05.13-.19.09-.22ZM495.86,389.17h-.48s-.05.04-.05.07h.52v-.07ZM476.34,389.27c-.11,0-.29-.1-.36.03.1.03.21.05.31.03.04,0,.1-.02.05-.07ZM495.34,389.27c-.17-.04-.16.03-.24.09-.02.01-.06,0-.08.02s0,.06-.02.08c-.04.05-.12.04-.09.19,0,.04.08,0,.07.05l-.13-.03c-.1.38,0,.65.19.97.06.07.31.08.36-.02l-.33-.03c0-.2.31,0,.29-.16-.11-.02-.29.05-.36-.05-.1-.16-.08-.57.06-.72-.16-.04-.01-.22.08-.28.06-.04.15-.02.18-.1ZM496.08,389.28c-.05-.03-.13,0-.19,0l.16.15-.16.08c.13,0,.27.05.34.17.01.02.09.25.09.27,0,.1-.07.17-.07.23s.11.15.06.25l-.07-.16c-.09-.03-.06.04-.1.08-.06.05-.17.06-.16.15.2.03.35-.02.52-.1.03-.09-.07-.05-.09-.12-.04-.12.02-.35-.02-.51-.02-.09-.24-.45-.32-.48ZM495.47,389.37c.03.11.39.08.39.02-.11-.11-.27-.01-.39-.02ZM475.78,389.76l-.13.02c-.02.3-.19.6-.1.9.24-.13.06-.43.18-.65.07-.13.18-.06.28-.15-.04-.05-.1-.11-.18-.08s-.02.13-.08.13l.03-.16ZM476.96,391.04s.04,0,.07,0c0-.15.01-.3.04-.44,0-.06.05-.11.06-.17.02-.13-.04-.26.07-.38l-.39-.2c-.06.18.17.14.2.28.02.12-.01.6-.13.66-.08.04-.2-.02-.23.05l.3.05s.03.1.03.15c-.11,0-.24-.15-.36-.02l.26.05.03.23c.09-.03.07-.18.07-.26ZM476.64,390.06c-.11-.06-.21,0-.3,0-.05,0-.2-.12-.22-.09-.07.08.09.16.1.19.07.12,0,.31-.02.44l-.06.05h-.41c.12.1.29.02.44.05.12.03.23.16.42.09l-.26-.1c-.05-.08.13-.33.05-.45,0,0-.21-.16,0-.09.11.04.22.12.26-.08ZM495.47,390.38c.34-.04.07.19.25.33l.08-.05c-.09-.18-.07-.34-.07-.54-.11.01-.1.11-.15.16-.04.05-.11.05-.11.1ZM485.92,390.42c-.06.23-.18.29.05.49.05.04.24.11.31.12.13.02.22-.08.2-.2-.03-.19-.31-.63-.53-.62-.06,0-.41.1-.3.2h.28ZM476.04,390.81c-.2-.07-.43.03-.59-.1,0,.09-.1.27.03.28.1-.24.3-.09.51-.12.04,0,.1-.02.05-.07ZM496.47,391.01h-.97s.04.07.05.07h.97c.01.11,0,.18-.07.26.12-.01.04.19.16.16v-.54s.03-.07,0-.11h-.06s-.08.16-.08.16ZM476.54,390.88c-.12.01-.32-.05-.39.07.12-.02.37.13.39-.07ZM495.42,392.22c.26.06.74-.04,1.03,0v-.1c-.29-.02-1.19.1-1.27-.29-.04-.17-.02-.58.22-.5l-.16-.07c-.01-.12.14-.08.2-.15-.26-.13-.45.36-.43.56,0,.03.1.31.11.34.02.04.26.2.3.21ZM476.67,392.02s.06,0,.1-.02c.09-.05.18-.12.26-.19v-.42c-.1.05-.12.19-.17.25-.05.07-.3.17-.35.21-.02.02,0,.07,0,.09-.03.01-.2.07-.21.07-.05-.1-.14-.15-.12-.26h-.13s.1.15.1.15l-.11.05-.02.07h.09s.04.16.04.16c.17-.02.3-.07.36-.23.14-.05.09-.06.17-.11.09-.06.19-.15.29-.19.05.05-.14.23-.19.26-.06.05-.08-.02-.11.1-.04.02-.25.13-.26.14-.06.08.06.12-.2.06l-.03.23h-.56c-.06-.18-.03-.38.13-.49-.08,0-.13-.02-.13-.1l-.06.02c-.08.31-.1.59-.12.9-.01.26.14.08.17-.07l1.23-.03s-.08-.07-.08-.07h-1.08s-.09.09-.15.07v-.16s.84,0,.84,0c0,0,.06-.05.05-.06l-.1-.08c.09-.07.18-.16.27-.24.07-.06.05.05.09-.11ZM496.62,391.89c-.08-.01-.05,0-.07.04-.06.1-.11.5.07.52v-.56ZM482.62,392.84h-1.03v.03h.95c.01.15-.18.37-.29.47-.3.28-.94.54-1.34.67-.13.04-.37-.01-.27.26,1.64.02,3.27.01,4.91.05.2,0,.3-.04.43-.04.27,0,.61.12.92.07.06,0,.1-.07.17-.07.06,0,.13.06.23.07.36.04.77-.04,1.12-.04.37,0,.84.09,1.22.04.07-.01.13-.07.16-.07.04,0,.08.06.13.06.21.01.8.03.99,0,.07,0,.12-.07.16-.07.06,0,.18.13.31.03l-.06-.18c-.05-.04-.15,0-.21-.01-.03,0-.04-.07-.08-.09-.48-.26-1.2-.5-1.64-.79-.09-.06-.27-.25-.24-.36h1.41v-.03h-1.53s-.07-.05-.11-.03c.07.27.36.53.6.66.04.02.1.02.15.05.12.06.26.18.4.18,0,.15-.21.08-.29.05-.16-.06-.68-.31-.81-.41-.18-.14-.29-.36-.39-.56s-.23-.49-.22-.72l-.1.02c-.13.28-.24.58-.43.83l-.21-.16-.05.08c.16.28.34.49.63.65.16.09.41.14.55.28-.1,0-.19.01-.29-.02-.21-.06-.92-.46-1.04-.64-.04-.05-.36-.76-.37-.81-.02-.13.04-.13.06-.24-.16-.15-.38.55-.43.63-.07.11-.15.14-.19.22l-.21-.2c-.13,0,.11.33.15.38.25.31.58.46.94.61.04.02.1-.03.08.07-.09,0-.18.01-.27,0-.17-.04-.82-.4-.94-.53-.14-.15-.42-.71-.48-.9-.03-.1.03-.17.02-.26-.05-.01-.06,0-.1.02-.18.12-.2.59-.43.74-.03.02-.09.02-.1.02,0,0,.06.14,0,.2-.09-.01-.1-.16-.14-.19-.05-.04-.17,0-.16-.11l-.07.02c-.02.18.25.32.31.47.25.2.55.31.83.46.04.02.09-.02.07.07-.08,0-.16.01-.24,0-.11-.03-.87-.41-.96-.49-.3-.26-.36-.71-.57-1.04-.02-.08.04-.17.13-.17l.02-.1c-.38-.06-.4.79-.64.82-.05,0-.09-.16-.11-.02.24.53.7.68,1.17.93.04.02.09-.02.07.07-.21.02-.42-.1-.61-.19-.72-.33-.76-.47-1.05-1.18-.04-.1-.14-.12-.05-.31.03-.06.15-.05.05-.12-.36.15-.32.64-.59.89ZM476.91,392.87s.05.03.08.04l.07-.04-.03-.61-.2.21.13.1v.11s-.09,0-.09,0c0,.06,0,.15.04.19ZM495.07,392.35c-.08-.01-.05,0-.07.05-.04.12.06.25-.06.36l.13.05c.03-.27.16,0,.32,0,.03.03.02.47,0,.53-.03.14-.26.18-.37.14-.05-.02-.09-.18-.14-.09-.03.05-.13.59-.03.59.07-.07.09-.16.21-.16-.03-.07-.31-.09-.16-.21.1-.08.21-.01.3-.02.13-.02.29-.16.48-.09v-.1c-.23.08-.21-.36-.1-.41.1-.05.15.06.19.08.12.07.21.05.26.24h.25s.04.1.04.1l.18-.03c-.43-.3-.89-.56-1.38-.81l-.07-.21ZM476.64,394.52c-.01-.09-.19-.06-.22-.02-.01.01,0,.06-.02.08-.02.03-.07.03-.08.07-.02.04-.01.2,0,.25,0,.02.2.22.22.22.05.01.21.01.25,0,.04-.01.04-.06.07-.08.06-.04.12,0,.12-.17-.1-.02-.08.11-.16.15-.05.02-.22.03-.27.02,0,0-.12-.11-.12-.12-.05-.16.04-.38.23-.37ZM476.96,394.68c.02-.16-.16-.31-.29-.18l.29.18ZM495.01,394.94s-.08-.02-.09,0c0,.14-.16.11-.1.3.02.06.07.04.09.05.01.12.05.18.18.2.38.05.57-.24.37-.55-.14-.07-.21-.16-.4-.1-.06.02-.05.09-.05.09ZM495.42,396.53c-.04-.05-.16-.13-.19-.22-.13-.02-.03.25,0,.27.05.03.14-.04.13.05-.02.1-.12.08-.15.11-.05.07-.1.38-.24.42-.19.06-.17-.02-.24-.07-.13-.08-.31-.21-.46-.22-.02.09.03.06.06.08.18.11.42.29.62.28.05.17-.13.16-.16.22s0,.17,0,.24c.09.02.06-.02.08-.06.17-.29.33-.56.48-.86.02-.05.1-.04.09-.17,0-.03-.02-.05-.04-.08ZM493.73,396.58c.15,0,.23.18.39.2-.01-.1-.21-.15-.25-.23-.03-.05.04-.16.02-.23-.13.05-.15.12-.16.26-.11,0-.04.06-.07.12-.02.04-.22.08-.07.2.08-.09.3-.12.35.02l.29.12c.02-.08-.04-.07-.08-.1-.12-.08-.27-.18-.41-.2,0-.05,0-.11,0-.16ZM478.11,396.65c.07-.06.33-.18.11-.26-.22.02-.44.08-.66.1-.29.02-.66.05-.93-.02-.23-.06.11.32.07.41l.15-.23c.14,0,.28-.05.37.08.02.03.19.37.19.39,0,.14-.19.16-.16.32.06.06.19-.23.21-.25.1-.13.37-.22,0-.21-.02-.16-.14-.22-.1-.39.23.06.52-.18.51.16.15-.08.12-.3.31-.26.01.01-.05.13-.07.16-.15.12-.34.31-.39.49,0,0-.04,0-.06.02-.05.03-.35.42-.33.44.15.03.07-.06.11-.09.02-.01.06,0,.08-.01.03-.02.19-.3.21-.35.18-.14.3-.27.39-.49ZM478.6,397.24s-.05,0-.06.02l-.84.77c-.1.09-.12-.01-.17-.05-.08-.04-.14.04-.04.14s.2.19.29.3c.15-.12-.09-.15-.08-.29.18.02.56-.5.65-.53.03,0,.07,0,.11,0v.23c.11-.03.05-.16.06-.24,0-.04.08-.02.1-.1,0-.05,0-.19,0-.25.06,0,.18.08.16-.02-.03-.13-.31-.4-.25-.18.02.06.07.11.08.2ZM494.56,397.23s-.04-.13-.17-.09c.01.11.2.16.27.2,0,0,.17.19.15.05,0,0-.13-.12-.13-.13-.03-.02-.09,0-.12-.03ZM477.1,397.6l.13-.11s-.15-.16-.21-.15c-.12.02.12.2.08.26ZM493.62,399.11c-.17.03-.4-.02-.57,0,.11.15.39-.02.49.13-.14.06-.3.01-.44.03-.06,0-.05-.01-.05.07h.49s0-.04.02-.07c.1-.07.24-.15.32-.23.07-.07.14-.25.25-.31l-.23-.02v.16c-.09-.02-.03-.1-.05-.16-.02-.08-.12-.12-.14-.23-.03-.16.07-.15.11-.22.17-.25.14-.29.5-.29-.1-.09-.24-.03-.36-.06-.06-.02-.06-.08-.08-.08-.08-.02-.19,0-.27,0-.03.14.23,0,.26.12.02.08-.22.36-.27.34-.04-.09-.3-.38-.23-.46l.12-.05-.33-.1c.08-.11.27.02.33-.11-.09,0-.18,0-.28,0-.05,0-.2-.1-.22-.01-.01.06.07.06.09.09.02.04.02.09.05.13.18.3.52.74.64,1.03.05.13.01.28-.14.3ZM477.32,397.63l-.16.05.1.21.07-.02v-.25ZM493.89,397.67c-.11.03-.38-.12-.39.07.08,0,.16,0,.24,0,.03,0,.15-.01.15-.06ZM494.32,397.77c-.1-.03-.21-.05-.31-.03-.04,0-.1.02-.05.07.11,0,.29.1.36-.03ZM494.78,397.77c-.13.06-.34.03-.43.13l.31.07.12-.2ZM494.58,398c-.1.02-.12.09-.23.03v.23s.13,0,.13,0l.1-.26ZM479.65,398.23s0-.08-.05-.09c-.15-.05-.51.13-.67.18-.06.02-.12,0-.17.02-.14.04-.25.2-.4,0l-.08.26c.14.07.86-.28.92-.23-.03.32.24-.06.3-.15l.16.02-.03.16.23.1c.04-.18-.12-.2-.2-.26ZM492.78,399.67s0-.07-.03-.11c-.03-.05-.19-.13-.2-.21l.1-.26.26-.05-.13-.11c.18-.29.01-.72-.38-.6-.07.02-.39.23-.46.29-.03.03-.01.08-.03.09-.03.03-.12-.03-.09.07l.16-.03c.07.24.31.42.48.6.02.02.02.07.05.1.06.06.19.2.26.22.05.09.11.1.1.2-.17-.04-.28.1-.3.26.07.06.23-.18.26-.21.08-.07.19-.11.26-.2.01-.07-.03-.05-.08-.05-.09,0-.15.03-.25,0ZM478.28,398.65c-.05-.08-.15-.06-.18-.16-.06.05-.09.12-.08.2l.26-.03ZM479.19,398.52c-.25.06-.43.31-.61.49h-.27c-.02.08.15.16.21.23.07.07.14.32.28.18-.09-.14-.15-.2-.29-.3l.49-.39.2-.21ZM479.95,398.88c-.19.11-.46.49-.56.69-.02,0-.08-.02-.09,0-.02.02.02.11-.14.14-.06.01-.12-.11-.19,0l.84.7h.06c.04-.16.17,0,.22,0,.03,0,.14-.12.18-.14l-.08-.07c-.12.07-.26.07-.39.05-.08-.15-.38-.22-.35-.4.01-.07.07-.09.09-.14.01-.03,0-.06,0-.08.02,0,.08.02.09,0,.01-.02.05-.18.17-.18l.34.25-.02.29c.1.01.11-.12.16-.18.07-.09.21-.15.2-.28-.11.01-.22.04-.2.17l-.1.02.07-.13c-.21-.09-.39-.17-.33-.43.15-.09.21-.28.39-.2.03.01.3.25.31.28.04.09-.05.32.04.32.06,0,.12-.23.21-.25l-.88-.8h-.11c.06.16.08.2.03.36ZM479.36,398.59l-.43.33c-.03.06-.23.2-.22.24.02.12.13-.06.15-.08.1-.09.34-.32.46-.4.04-.03.07.03.05-.1ZM491.82,398.82c-.06-.04-.27.12-.23.16l.26-.02-.04-.14ZM491.63,400.42c.04.17-.02.21-.07.36.15.02.22-.14.34-.23.1-.07.19-.03.21-.2-.12-.04-.19.07-.31-.03-.03-.03-.02-.07-.03-.09-.19-.22-.32-.44-.48-.68-.02-.03-.08-.04-.09-.08-.08-.26.12-.21.24-.37h.05c-.04.09.2.27.23.15.02-.08-.11-.1-.12-.12-.03-.05.03-.18-.15-.15-.05,0-.4.26-.45.31-.03.03-.05.03-.03.08.21.01.13.07.2.18.19.31.49.65.72.92l-.2.11c.07-.15.02-.12-.07-.16,0-.03,0-.05-.02-.1-.08-.19-.45-.57-.59-.76-.04-.05-.07-.13-.09-.19h-.05c-.26.17-.48.42-.78.54-.11.05-.26,0-.23.15.1,0,.18-.08.25.03.03.2.28.51.3.68,0,.04-.03.07-.02.11-.1,0-.2-.13-.24-.14-.06-.02-.11-.01-.16-.02-.05-.13-.04-.04-.14-.1-.05-.03-.13-.16-.22-.05.08.02.2.12.25.14.04.01.08,0,.11,0,.06.15.07.06.14.1.18.11.29.17.49.26,0,.03,0,.07-.01.1l-.12.05c.06,0,.18.16.21.15.08-.04,0-.26-.02-.29-.02-.02-.05,0-.06,0,0-.05,0-.09,0-.14l-.39-.9c-.01-.1.12-.11.16-.21.14-.02.15.08.18.2l.15-.03-.15-.29c.16.03.2-.14.34-.16.21.25.39.51.6.76.06.07,0,.05.11.12ZM492.04,399.06c-.05-.05-.05-.14-.14-.03.11.1.22.21.32.32s.27.27.37.4c.02.03.03.12.05.11.05-.02.07-.08.02-.12-.21-.21-.39-.48-.61-.69ZM481,400.06c.02-.23.41-.53.08-.66-.09-.04-.06.21.05.21v.06c-.12.03-.07.12-.11.17-.01.02-.22.17-.02.21ZM481.77,399.86c-.1-.09-.27-.24-.4-.27-.06-.01-.06-.02-.1.03.08.2.1.11.23.17.15.07.26.18.22.35-.02.1-.13.09-.09.22.18-.09.17-.3.23-.48,0-.03-.06,0-.09-.03ZM481.95,400.03c-.13-.02-.04.19-.07.27,0,.03-.17.14-.21.15l.03.07c.22-.03.27-.3.25-.49ZM482.48,400.32l.08-.03v-.1s-.23-.13-.23-.13c-.11.11.06.16.12.2.03.02.03.06.03.06ZM481.1,400.13c-.08-.01-.05,0-.07.04-.05.09-.1.22-.09.32.31-.25.11.14.26.26,0-.06-.04-.35.08-.33.09.08-.06.24.08.3-.02-.22.24-.19.23-.36-.15.03-.29.02-.44-.03l-.05-.2ZM482.93,400.33c-.12-.03-.2-.1-.33-.07l.09.17h.24s0-.1,0-.1ZM489.2,400.49c.05-.19-.33-.18-.3-.02.02.09.23-.01.3.02ZM482.34,400.82c-.06-.06.21-.43.08-.43-.05,0-.04.12-.06.15-.01.02-.06,0-.08.1-.01.06-.04.21.06.17ZM488.84,400.46h-.13s0,.13,0,.13c-.23-.16-.56.07-.82.08l.21.11s.07-.05.11-.06c.06-.01.37-.1.39-.09.09.02.16.18.27.19.12-.11-.15-.19-.02-.36ZM489.99,401.67c-.05-.2-.17.04-.3-.21-.05-.09-.26-.59-.28-.67s.06-.18.01-.24l-.22-.03c-.05.05.38.94.42,1.07v.07c-.12.04-.22.24-.05.19.07-.02.27-.21.42-.19ZM482.67,401.06c-.04.13.03.51,0,.67h.1s-.03-.04-.03-.05v-.59s.26-.35.32-.37c.02,0,.05-.01.07,0l.05.09c.16-.26.7-.15.79.13l.05-.16c.19.1.02.14,0,.19s-.03.41.06.3l.13-.48c-.02-.14-.14-.03-.23-.06s-.19-.16-.35-.18c-.08-.01-.38-.02-.45,0-.02,0-.03.05-.05.06-.09.04-.31.14-.36.24-.02.05,0,.11-.02.15,0,.02-.08.03-.09.06ZM480.8,400.69c-.14-.03-.05.17-.07.19-.06,0-.14.02-.13.1.12,0,.16.13.3.1,0-.08-.1-.12-.11-.19-.01-.06.03-.14.02-.2ZM480.57,400.88c.05-.15-.25-.22-.29-.11.1.06.17.14.29.11ZM487.86,400.72c-.1,0-.22-.04-.29.05l.25.11.05-.16ZM481.46,400.78c-.11.03-.08.43-.02.43.11-.1-.03-.29.02-.43ZM481.29,400.82c-.04-.05-.06,0-.07.05-.01.12.01.26,0,.38.04.05.06,0,.07-.05.01-.12-.01-.26,0-.38ZM482.84,401.23c-.03.13.02.34,0,.48l.1-.05v-.48s.04,0,.06,0c.04-.06.03-.23.14-.3l-.1-.05c-.03.1-.08.18-.12.29-.02.04-.07.09-.08.12ZM484.9,400.86s-.09-.06-.11,0l-.71,1.29c-.06.08-.21,0-.19.18.12-.04.37.07.46.02.05-.03.02-.06-.02-.08-.08-.04-.18,0-.21-.07.19-.02.13-.3.31-.33.05,0,.48.04.52.06l.05.26c.06-.01.07-.09.07-.14l-.15-.51c-.07.08.03.22-.11.26-.07.02-.33-.02-.34-.11,0-.05.22-.41.25-.41l.08.05v.18c.18-.1-.07-.33-.03-.47l.07-.03.1.18c0-.09.02-.25-.04-.32ZM487.53,401.38c-.07-.08-.05-.56-.11-.56-.08.2-.32.06-.49.06-.27,0-.42.11-.61.28l.1.05s-.05.26.07.29l-.03-.39.13.06c.08-.2.33-.21.52-.17.12.02.12.11.26,0,.09.06.02.08-.05.1v.06c.1,0,.08.12.1.2h.13ZM487.89,401.31c.1-.05.12-.4-.03-.39l.03.39ZM488.81,400.95c-.11-.02-.11.22-.17.26-.04.02-.11,0-.16.02-.06.02-.12.08-.18.08s-.08-.07-.14-.06c.02.13-.05.32.05.43,0-.34.08-.24.31-.31.14-.04.14-.17.29-.15v-.26ZM482.34,401.11l-.16.22-.03.23h-.16s-.02-.09-.02-.09c-.09.01-.21-.03-.28.05,0,.05.38.12.43.15.07.03.13.22.25.05l-.13-.07c-.06-.23.1-.34.1-.54ZM481.55,401.29s-.21-.05-.22-.04v.13c.15-.02.2.14.36.1-.04-.03-.12-.17-.14-.19ZM488.71,401.28l.15.23.04-.2-.18-.03ZM486.22,401.41h-.07v.56h.07v-.56ZM489.04,401.9l.08.06c.12-.01.04-.09.04-.15,0-.05.07-.28-.01-.28-.09,0-.11.21-.13.26-.11.23-.66.1-.77.33.26.08.51-.12.79-.1v-.13ZM488.12,401.7s-.06,0-.07.05c-.02.18.14.34-.11.44,0,.13.19.02.28.03,0-.07-.05-.08-.06-.15-.02-.11.01-.26-.03-.38ZM483.04,401.89s-.02-.11-.06-.15l-.11.23c.08-.03.09.05.12.06.29.15.62.18.89-.01.03-.15-.33.02-.4.01-.09,0-.38-.07-.44-.14ZM486.48,401.8c-.1-.04-.08.16-.06.21.02.08.12.11.1.2-.05.05-.03.06-.08.01-.07-.07-.12-.13-.17-.23-.08.13.13.35.26.33.03,0,0-.12.07-.03l-.05.13c.21,0,.39.06.6.02.14-.02.41-.16.42-.3,0-.14-.21.08-.25.11-.15.08-.31.13-.48.09s-.13-.12-.17-.15c-.02-.02-.06,0-.08-.02-.02-.01,0-.06-.02-.08-.09-.11-.11-.14-.09-.31ZM484.87,402.36c.01.18.21.06.31.06.09,0,.25.16.28.05.03-.1-.08-.1-.11-.15-.02-.04-.02-.16-.07-.16-.08,0,.03.2-.07.23l-.21-.16c0,.1-.03.14-.13.13Z"/>
    <path class="cls-2" d="M479.95,398.88c.1-.06.08-.05.15-.16l.15.1c-.13.14-.25.16-.3.36-.11.06-.32.32-.39.46-.02,0-.06,0-.08.03l-.16.23-.1-.06-.02-.07c.12-.02.15-.11.2-.2.08-.03.47-.48.53-.57.03-.05.02-.07.03-.12Z"/>
    <path class="cls-2" d="M495.01,394.94c.69-.15.48.71.03.46-.03-.02-.05-.06-.12-.1-.02-.18.02-.22.1-.36Z"/>
    <path class="cls-2" d="M477.42,386.09c.15.11.31.24.48.35s.32.28.52.33c0,.05,0,.11-.02.17-.12-.01-.29-.23-.4-.28-.04-.02-.08-.01-.1-.02-.09-.16-.13-.12-.25-.21-.12-.08-.14-.15-.31-.18-.03-.06-.02-.08-.12-.13l.02-.1s.14.05.16.07Z"/>
    <path class="cls-2" d="M482.62,392.84c.27-.24.23-.73.59-.89.11.08-.02.07-.05.12-.09.19,0,.2.05.31.29.71.33.85,1.05,1.18.19.09.4.21.61.19.02-.1-.03-.05-.07-.07-.47-.25-.93-.4-1.17-.93.03-.14.06.03.11.02.24-.03.26-.89.64-.82l-.02.1c-.09,0-.15.09-.13.17.21.33.27.78.57,1.04.09.08.85.46.96.49.08.02.16,0,.24,0,.02-.1-.03-.05-.07-.07-.28-.15-.58-.25-.83-.46-.07-.16-.34-.29-.31-.47l.07-.02c-.01.1.11.06.16.11.04.03.05.17.14.19.06-.06,0-.19,0-.2,0,0,.06,0,.1-.02.23-.15.25-.62.43-.74.04-.02.05-.04.1-.02,0,.1-.05.16-.02.26.06.2.34.76.48.9.12.13.77.49.94.53.09.02.18,0,.27,0,.02-.1-.03-.05-.08-.07-.36-.15-.69-.3-.94-.61-.04-.05-.28-.38-.15-.38l.21.2c.04-.08.12-.11.19-.22.05-.08.28-.78.43-.63-.02.11-.08.11-.06.24,0,.05.33.76.37.81.12.18.83.57,1.04.64.1.03.19.02.29.02-.14-.14-.39-.19-.55-.28-.29-.16-.46-.37-.63-.65l.05-.08.21.16c.19-.25.3-.55.43-.83l.1-.02c-.01.22.12.51.22.72s.21.42.39.56c.12.09.65.35.81.41.09.03.3.11.29-.05-.14,0-.28-.11-.4-.18-.05-.02-.11-.02-.15-.05-.24-.14-.53-.39-.6-.66.05-.02.1.03.11.03h1.53v.03h-1.41c-.03.11.16.3.24.36.43.3,1.15.54,1.64.79.04.02.05.08.08.09.06.01.16-.02.21.01l.06.18c-.14.1-.25-.03-.31-.03-.04,0-.09.06-.16.07-.19.03-.78,0-.99,0-.05,0-.08-.06-.13-.06-.04,0-.09.06-.16.07-.37.05-.84-.04-1.22-.04-.35,0-.76.08-1.12.04-.1-.01-.17-.07-.23-.07-.07,0-.11.06-.17.07-.31.05-.65-.07-.92-.07-.13,0-.22.04-.43.04-1.63-.04-3.27-.03-4.91-.05-.09-.27.14-.21.27-.26.4-.13,1.03-.4,1.34-.67.11-.1.31-.31.29-.47h-.95v-.03h1.03Z"/>
    <path class="cls-2" d="M488.05,388.62l.04.23.18-.06.49.78c-.04.19-.26.03-.37,0-1.51-.33-2.91-.4-4.42-.1l-.67.19s-.09-.04-.1-.07c-.01-.11.39-.63.45-.77l.16.03c-.07-.11.04-.21.15-.23.13-.03.32.02.46,0,.09-.02.13-.09.23-.1.51-.06,2.05-.06,2.56,0,.12.01.23.08.36.1.15.02.31,0,.47,0ZM485.13,388.64h.49s-.06-.05-.09-.06c-.11-.03-.32-.05-.4.06ZM486.31,388.64h.49l-.38-.09c-.06.01-.14,0-.11.09Z"/>
    <path class="cls-2" d="M484.02,388.22c-.03-.12.07-.16.11-.24.17-.35.22-.48.61-.64.69-.27,1.84-.27,2.53,0,.44.18.47.44.69.82l-.05.08c-.06-.02-.13-.05-.2-.06-.83-.08-1.69-.15-2.52-.1-.16,0-1.12.17-1.16.13Z"/>
    <path class="cls-2" d="M493.62,399.11c.15-.02.19-.18.14-.3-.12-.29-.47-.74-.64-1.03-.03-.04-.02-.09-.05-.13-.02-.03-.1-.03-.09-.09.02-.08.16,0,.22.01.09,0,.18,0,.28,0-.06.13-.24,0-.33.11l.33.1-.12.05c-.06.08.19.37.23.46.06.01.29-.26.27-.34-.03-.12-.29.02-.26-.12.08.01.19-.02.27,0,.03,0,.02.07.08.08.13.03.27-.03.36.06-.36,0-.33.04-.5.29-.05.07-.14.06-.11.22.02.1.11.15.14.23.02.06-.04.14.05.16v-.16s.23.02.23.02c-.1.06-.18.24-.25.31-.08.08-.22.16-.32.23-.03.02-.02.07-.02.07h-.49c0-.08-.01-.06.05-.07.14-.02.3.03.44-.03-.1-.15-.38.02-.49-.13.18-.02.4.03.57,0Z"/>
    <path class="cls-2" d="M494.18,387.83s.02.06.04.07c.07.05,1.35.01,1.55,0,.03,0,.05-.04.09.03,0,.04-.23.31-.25.31-.01,0-.08,0-.08-.02l.13-.16c.05-.02,0-.08-.02-.08-.05-.01-.18.14-.18.2l-.07-.02-.08-.14-.41.04c-.1.07.07.31.12.38.01,0,.14-.05.16-.06.03-.03.11-.29.22-.15-.22.14-.5.59-.7.71-.03.02-.06.04-.1.03-.07,0-.14-.17-.12-.2.07-.08.12.15.22.09.01,0,.2-.2.2-.21.03-.1-.16-.56-.25-.59-.05-.02-.27-.02-.31,0-.06.07,0,.22-.13.22.02-.15-.13-.29-.16-.41-.02-.07.09-.06.12-.04Z"/>
    <path class="cls-2" d="M495.07,392.35l.07.21c.48.25.95.5,1.38.81l-.18.03-.04-.1h-.25c-.04-.18-.13-.16-.26-.23-.04-.02-.09-.13-.19-.08-.11.05-.13.49.1.41v.1c-.19-.07-.35.08-.48.09-.1.01-.2-.06-.3.02-.15.12.13.15.16.21-.12,0-.14.09-.21.16-.1,0,0-.54.03-.59.05-.08.08.08.14.09.12.04.35,0,.37-.14.01-.06.02-.5,0-.53-.16-.01-.29-.28-.32,0l-.13-.05c.12-.11.02-.24.06-.36.02-.05-.01-.06.07-.05Z"/>
    <path class="cls-2" d="M491.63,400.42c.08.05.14.01.07.16l.2-.11c-.23-.27-.54-.61-.72-.92-.07-.11.01-.17-.2-.18-.01-.05,0-.05.03-.08.05-.05.4-.3.45-.31.18-.03.12.1.15.15.01.03.14.05.12.12-.03.12-.27-.06-.23-.15h-.05c-.12.17-.33.12-.24.37.01.04.07.04.09.08.16.23.29.46.48.68.02.02,0,.06.03.09.12.11.19,0,.31.03-.02.17-.11.12-.21.2-.13.09-.2.25-.34.23.05-.15.1-.19.07-.36-.12-.07-.05-.05-.11-.12-.2-.25-.39-.51-.6-.76-.14.02-.18.2-.34.16l.15.29-.15.03c-.03-.11-.03-.22-.18-.2-.04.11-.17.11-.16.21l.39.9s.01.09,0,.14c.01,0,.04-.01.06,0,.03.03.11.25.02.29-.03.01-.15-.14-.21-.15l.12-.05s.01-.07.01-.1c-.19-.09-.31-.15-.49-.26-.07-.04-.08.04-.14-.1-.03,0-.07,0-.11,0-.05-.02-.18-.12-.25-.14.09-.12.17.02.22.05.1.06.09-.03.14.1.05.01.1,0,.16.02.04.02.13.15.24.14,0-.04.03-.07.02-.11-.03-.17-.27-.48-.3-.68-.07-.11-.15-.04-.25-.03-.04-.15.12-.11.23-.15.29-.12.51-.36.78-.54h.05c.02.06.05.14.09.19.13.19.5.57.59.76.02.04.01.06.02.1Z"/>
    <path class="cls-2" d="M484.9,400.86c.06.07.04.23.04.32l-.1-.18-.07.03c-.04.15.22.37.03.47v-.18s-.08-.05-.08-.05c-.02,0-.25.35-.25.41,0,.09.27.13.34.11.13-.04.03-.17.11-.26l.15.51c0,.06,0,.13-.07.14l-.05-.26s-.47-.07-.52-.06c-.18.03-.13.31-.31.33.03.06.13.02.21.07.04.02.07.05.02.08-.09.05-.34-.06-.46-.02-.01-.17.13-.1.19-.18l.71-1.29c.02-.05.09-.01.11,0Z"/>
    <path class="cls-2" d="M478.11,396.65s.08-.15.07-.16c-.19-.04-.17.18-.31.26,0-.34-.28-.11-.51-.16-.04.17.09.23.1.39.38-.01.11.09,0,.21-.02.02-.15.32-.21.25-.03-.16.15-.18.16-.32,0-.02-.17-.36-.19-.39-.09-.12-.24-.08-.37-.08l-.15.23c.04-.1-.3-.47-.07-.41.27.07.64.04.93.02.22-.02.44-.08.66-.1.22.08-.04.21-.11.26-.09.22-.21.35-.39.49-.02.05-.18.33-.21.35-.02.01-.07,0-.08.01-.03.03.04.12-.11.09-.02-.02.28-.41.33-.44.03-.02.06-.01.06-.02.06-.18.24-.38.39-.49Z"/>
    <path class="cls-2" d="M485.92,390.42h-.28c-.11-.1.24-.19.3-.2.23-.02.5.42.53.62.02.12-.07.22-.2.2-.07-.01-.26-.08-.31-.12-.22-.2-.11-.26-.05-.49Z"/>
    <path class="cls-2" d="M482.48,382.48c.06.03.41.34.36.39l-.58.23-.02.36s.2-.04.2.08c-.06.09-.17.07-.26.1-.05.02-.09.12-.2.08,0-.13.11-.12.13-.25.02-.18-.05-1.23.09-1.26.12.04.22.16.28.26-.04-.02-.13-.02-.18-.07-.07.01-.08.5,0,.52.07.02.38-.11.37-.21-.04-.05-.12-.07-.16-.13-.03-.05-.02-.1-.03-.12Z"/>
    <path class="cls-2" d="M477.36,386.25c-.18-.04-.19.02-.34.1-.08-.15.16-.22.17-.24.04-.05.11-.27.22-.39.05-.05.19-.2.25-.22l.26.15c-.29-.06-.52.12-.49.43-.03-.02-.15-.08-.16-.07l-.02.1c.1.05.09.07.12.13Z"/>
    <path class="cls-2" d="M477.42,386.09c.12-.04.13.05.15.07.08.04.17,0,.14.13.06,0,.14-.02.18-.06.17-.17.11-.23.15-.41,0-.02.12-.01.05-.15-.04-.09-.16-.07-.15-.16.06-.04.22.09.23.12.03.1-.02.17.08.27.09.08.17.05.28.11.06.03.25.28.26.33.04.16-.28.45-.33.6-.01.01-.04,0-.06,0,0-.05.01-.11.02-.17-.2-.05-.35-.22-.52-.33s-.34-.24-.48-.35ZM478.5,386.06s-.27-.02-.31,0c-.01,0-.17.17-.18.2-.02.05-.05.14,0,.19.11.02.25.19.34.22.27.08.34-.31.31-.5-.09,0-.12-.1-.14-.11Z"/>
    <path class="cls-2" d="M477.36,386.25c.17.04.19.1.31.18.12.09.16.05.25.21-.17-.07-.48-.24-.56-.39Z"/>
    <path class="cls-2" d="M478.41,386.94c-.01.07-.04.19-.1.24-.17.15-.05-.19-.07-.25-.02-.07-.28-.18-.31-.22-.02-.02,0-.06-.02-.07.02,0,.06,0,.1.02.11.05.28.26.4.28Z"/>
    <path class="cls-2" d="M476.96,386.54l-.02.26c.41.27,1.23.41,1.05,1.05-.01.05-.2.35-.25.38-.13.07-.13-.04-.15-.05-.08-.02-.23.05-.27-.07h.39c0-.11.09-.14.13-.22.25-.55-.49-.7-.83-.9-.04-.02-.04-.14-.17-.07-.02.01-.13.23-.16.06,0-.03.25-.49.29-.44Z"/>
    <path class="cls-2" d="M476.5,391.96s-.02-.08,0-.09c.05-.04.29-.14.35-.21.04-.06.06-.21.17-.25v.42c-.09.06-.17.14-.27.19-.04.02-.08.01-.1.02-.03.16-.01.05-.09.11-.09.07-.18.16-.27.24l.1.08s-.04.06-.05.06h-.84v.16c.06.02.12-.07.15-.07h1.08s.1.03.08.07l-1.23.03c-.03.15-.18.32-.17.07.02-.31.03-.59.12-.9l.06-.02c0,.08.05.1.13.1-.16.11-.19.31-.13.49h.56l.03-.23c.26.06.15.02.2-.06,0-.01.22-.12.26-.14.02-.12.04-.05.11-.1.05-.04.24-.21.19-.26-.1.04-.2.12-.29.19-.08.05-.03.06-.17.11-.06.16-.19.21-.36.23l-.04-.16h-.09s.02-.07.02-.07l.11-.05-.1-.15h.13c-.02.11.07.17.12.26.01,0,.18-.05.21-.07Z"/>
    <path class="cls-2" d="M493.07,385.79c.01-.07.04-.2.02-.26-.02-.06-.31-.37-.36-.38-.13-.01-.28.11-.3.1-.04,0-.1-.12-.15.01.13-.03.09.08.16.15.03.07-.09.06-.12.04-.02-.01-.08-.17-.12-.21-.03-.03-.24-.14-.02-.13s.37-.04.59-.12c.3-.1.58-.29.91-.25l-.13.04-.04.19c-.08,0-.12-.07-.21-.07-.02,0-.35.11-.36.13-.09.13.17.38.31.36.02.09-.06.12-.09.19-.02.05-.03.19-.05.2-.01.01-.05,0-.06,0-.02.1-.09.19-.1.26.1.05.22.03.2.23-.13.03-.09-.05-.13-.11-.03-.04-.08,0-.07-.12-.07-.03-.22-.07-.2-.18.02-.1.12.04.18.02.03-.01.01-.06.12-.1Z"/>
    <path class="cls-2" d="M492.78,399.67c-.07-.02-.2-.16-.26-.22-.03-.03-.03-.08-.05-.1-.17-.18-.41-.36-.48-.6l-.16.03c-.03-.11.06-.04.09-.07.02-.01,0-.07.03-.09.07-.06.39-.26.46-.29.39-.12.56.31.38.6l.13.11-.26.05-.1.26c0,.07.17.15.2.21.02.04.02.09.03.11.1.03.16,0,.25,0,.05,0,.1-.03.08.05-.07.09-.18.12-.26.2-.03.03-.19.28-.26.21.01-.16.13-.3.3-.26.01-.09-.05-.11-.1-.2ZM492.67,398.43c-.07-.03-.18-.01-.25,0-.04.01-.35.26-.35.3-.02.11.13.21.2.28.04.04.1.23.22.14.11-.08.33-.48.29-.61,0,0-.09-.11-.1-.11Z"/>
    <path class="cls-2" d="M486.58,382.72c.02.07.5.08.6.08l.24-.3.08.05c.01.1-.12.22-.13.24-.02.05.02.13-.05.17-.25-.17-1.01-.02-1.2-.11-.01,0-.04-.04-.03-.05.07.01.14-.09.19-.09.07-.01.17.18.24.04l.04-1,.04.22c.06.09.51-.05.52.14l.07-.02c-.02-.06-.03-.3.08-.28.07.05.04.08.03.13,0,.14-.03.28-.02.43-.15.05-.11-.15-.19-.2-.1-.05-.42-.11-.5-.02v.56Z"/>
    <path class="cls-2" d="M489.76,381.95v.2s-.1-.15-.1-.15c-.17.07.08.34,0,.51l-.03-.13h-.13c0,.19-.38.75-.32.88.02.04.15.13.15.15,0,.14-.22-.05-.24-.06-.1-.04-.26-.04-.32-.16.07-.06.22.01.26,0,.06-.03.37-.94.47-1.06.06-.21-.13-.22-.13-.26,0-.16.35.14.39.08Z"/>
    <path class="cls-2" d="M482.67,401.06s.08-.04.09-.06c.02-.04,0-.1.02-.15.05-.1.27-.2.36-.24.02,0,.02-.06.05-.06.07-.02.37-.01.45,0,.16.02.25.15.35.18s.21-.08.23.06l-.13.48c-.1.1-.08-.25-.06-.3s.19-.09,0-.19l-.05.16c-.09-.28-.63-.39-.79-.13l-.05-.09s-.05,0-.07,0c-.06.02-.32.35-.32.37v.59s.05.04.03.05h-.1c.03-.16-.04-.54,0-.67Z"/>
    <path class="cls-2" d="M495.42,392.22s-.28-.17-.3-.21c-.01-.03-.11-.31-.11-.34-.02-.19.16-.68.43-.56-.06.07-.21.02-.2.15l.16.07c-.25-.08-.26.33-.22.5.09.39.98.26,1.27.29v.1c-.29-.04-.77.06-1.03,0Z"/>
    <path class="cls-2" d="M484.81,381.64c-.02-.18-.05-.2-.23-.21l.05-.09,1.14.03.05.04-.1.05v.05c.12.14.24.24.2.44-.13.03-.03-.15-.07-.22,0-.01-.05-.02-.07-.04-.05-.06-.08-.13-.16-.17-.17-.09-.41-.15-.58-.04v.71h-.03s-.03-.1-.03-.11v-.62c-.2-.13-.1.07-.1.13v.72s-.05.07-.03.11h-.03c-.02-.25.03-.53,0-.77Z"/>
    <path class="cls-2" d="M486.35,381.48s-.21-.13-.13-.21c.02-.02.23.1.31.1.09,0,.16-.04.23-.03.21,0,.45.06.67.03-.03.08.07.34-.02.36-.16.03-.09-.16-.12-.19-.02-.02-.46-.09-.51-.09-.17,0-.04.24-.17.22v-.21s-.08-.06-.08-.06c-.03-.02-.14.07-.14.07-.03.06.03.09.03.11v1.08l-.05.05-.05-.05c-.02-.06.03-.11.03-.13,0-.19.04-.94,0-1.05Z"/>
    <path class="cls-2" d="M478.6,397.24c-.01-.09-.07-.14-.08-.2-.06-.22.22.05.25.18.02.1-.1.01-.16.02,0,.05.01.2,0,.25-.02.08-.09.07-.1.1-.02.08.04.21-.06.24v-.23s-.08,0-.11,0c-.08.03-.46.55-.65.53,0,.14.23.17.08.29-.09-.11-.19-.2-.29-.3s-.03-.19.04-.14c.06.03.07.13.17.05l.84-.77s.04-.02.06-.02Z"/>
    <path class="cls-2" d="M495.42,396.53s.04.05.04.08c.02.13-.06.12-.09.17-.15.3-.31.57-.48.86-.03.04,0,.08-.08.06,0-.07-.03-.18,0-.24s.22-.05.16-.22c-.2,0-.45-.17-.62-.28-.04-.03-.08,0-.06-.08.15.01.33.14.46.22.07.05.05.13.24.07.13-.04.19-.35.24-.42.03-.04.12-.01.15-.11.02-.09-.08-.03-.13-.05-.03-.02-.13-.3,0-.27.03.1.15.17.19.22Z"/>
    <path class="cls-2" d="M485.13,382.28v.43c.34.04.68-.06.72-.43.2,0-.06.27-.03.3.16,0,.22-.17.23-.3.19.11-.16.53-.3.33l.03.16c-.18-.03-.33.07-.51.09-.12.01-.24,0-.36,0-.09,0-.24.1-.25-.07l.43-.03c-.03-.13-.05-.3-.03-.44,0-.05.03-.1.07-.05Z"/>
    <path class="cls-2" d="M489.99,401.67c-.14-.02-.34.17-.42.19-.17.05-.07-.16.04-.19v-.07c-.03-.14-.46-1.02-.41-1.07l.22.03c.04.06-.03.16-.01.24s.23.58.28.67c.13.24.25.01.3.21Z"/>
    <path class="cls-2" d="M478.41,384.64s.39.47.46.53c.07.07.06.07.11.12.03.03.12-.04.09.11-.06.01-.07-.02-.1-.05-.1-.07-.39-.35-.48-.44-.04-.05-.07-.1-.08-.16-.09-.06-.17.12-.16.19.15-.08.27.15.37.25.17.16.39.31.54.49.05.06.05.06-.01.11l-.81-.81c-.1-.06-.24.07-.32-.03l.41-.44c.2.08,0,.12-.02.13Z"/>
    <path class="cls-2" d="M495.34,389.27c-.03.08-.12.06-.18.1-.09.06-.24.24-.08.28-.14.14-.16.55-.06.72.06.1.25.04.36.05.01.16-.3-.03-.29.16l.33.03c-.05.09-.3.09-.36.02-.19-.32-.29-.59-.19-.97l.13.03c.01-.05-.06-.02-.07-.05-.04-.14.05-.13.09-.19.01-.02,0-.06.02-.08s.06,0,.08-.02c.08-.06.07-.13.24-.09Z"/>
    <path class="cls-2" d="M479.39,399.57c-.05.09-.07.18-.2.2l.02.07.1.06.16-.23s.06-.02.08-.03c0,.01,0,.05,0,.08-.02.05-.08.07-.09.14-.03.19.27.26.35.4.13.02.27.02.39-.05l.08.07s-.16.14-.18.14c-.05,0-.18-.16-.22,0h-.06s-.84-.71-.84-.71c.07-.11.14,0,.19,0,.15-.03.12-.12.14-.14.02-.02.07,0,.09,0Z"/>
    <path class="cls-2" d="M479.95,399.18c-.06.26.11.34.33.43l-.07.13.1-.02c-.02-.13.09-.16.2-.17.01.13-.12.19-.2.28-.06.07-.06.19-.16.18l.02-.29-.34-.25c-.12,0-.16.16-.17.18-.02.02-.07,0-.09,0,.07-.14.28-.4.39-.46Z"/>
    <path class="cls-2" d="M479.95,398.88c.04-.17.03-.2-.03-.36h.11s.88.8.88.8c-.09.02-.15.24-.21.25-.09,0,0-.23-.04-.32-.01-.02-.28-.27-.31-.28-.17-.08-.23.12-.39.2.05-.2.17-.22.3-.36l-.15-.1c-.07.12-.05.11-.15.16Z"/>
    <path class="cls-2" d="M479.95,398.88s0,.06-.03.12c-.06.09-.44.54-.53.57.1-.2.36-.58.56-.69Z"/>
    <path class="cls-2" d="M490.15,383.49c-.02-.13-.07-.12-.09-.19-.06-.18.15-.1.2-.21.01-.2.27-.52.22-.69-.02-.07-.14-.1-.12-.19.13-.04.17.09.23.12.05.02.1-.01.13,0,.05.02.16.09.2.14h-.29s-.38.99-.38.99c-.02.04-.06.02-.08.03.02.13.02.24-.12.29-.13-.2-.04-.23.12-.29Z"/>
    <path class="cls-2" d="M496.08,389.28c.08.04.3.39.32.48.04.16-.02.39.02.51.02.06.13.03.09.12-.18.08-.32.12-.52.1-.01-.09.1-.1.16-.15.04-.04.01-.1.1-.08l.07.16c.04-.1-.06-.19-.06-.25s.07-.13.07-.23c0-.02-.08-.25-.09-.27-.06-.12-.21-.17-.34-.17l.16-.08-.16-.15c.06,0,.13-.02.19,0Z"/>
    <path class="cls-2" d="M480.24,383.72s-.04,0-.06,0c-.02-.03-.01-.55,0-.6,0-.03.06-.02.08-.06.02-.04,0-.1.03-.15.07-.13.48-.33.62-.3.02,0,.02.05.05.06.11.06.15-.04.19-.03.03,0,.07.17.15.18l-.05.11-.19-.19c-.27.03-.44-.01-.62.22-.02.02-.18.32-.18.34-.02.1-.01.3,0,.41.14.06.07.07.13.15.09.1.2.16.27.27.42-.03.9-.12.98-.62l.1.05c-.07.54-.81.84-1.25.52-.12-.09-.22-.22-.23-.37Z"/>
    <path class="cls-2" d="M479.65,398.23c.08.07.23.08.2.26l-.23-.1.03-.16-.16-.02c-.06.09-.32.47-.3.15-.05-.06-.78.3-.92.23l.08-.26c.15.21.26.05.4,0,.05-.02.12,0,.17-.02.16-.05.52-.23.67-.18.06.02.05.09.05.09Z"/>
    <path class="cls-2" d="M492.3,383.39s.26.16.3.2c.06.06.17.26.21.28.07.03.2-.1.13.15-.06.02-.07-.04-.1-.05-.1-.03-.14.06-.01.08v.05c-.04.06-.12.25-.2.25-.13,0,.06-.23.07-.26.06-.18-.24-.49-.41-.54-.11-.03-.35-.06-.48-.08-.06,0-.05.01-.05-.07.15.02.4-.03.54,0Z"/>
    <path class="cls-2" d="M487.53,401.38h-.13c-.02-.08,0-.2-.1-.2v-.06c.07-.02.13-.04.05-.1-.14.11-.14.02-.26,0-.18-.04-.43-.03-.52.17l-.13-.06.03.39c-.12-.03-.04-.26-.07-.29l-.1-.05c.19-.18.34-.28.61-.28.17,0,.41.13.49-.06.07,0,.04.48.11.56Z"/>
    <path class="cls-2" d="M486.48,401.8c-.02.17,0,.2.09.31.01.02,0,.06.02.08.02.02.06,0,.08.02.03.03,0,.11.17.15s.33-.01.48-.09c.05-.02.26-.25.25-.11,0,.15-.28.28-.42.3-.21.03-.39-.03-.6-.02l.05-.13c-.07-.08-.04.03-.07.03-.13.02-.34-.2-.26-.33.05.09.1.15.17.23.05.05.03.03.08-.01.02-.09-.08-.12-.1-.2-.01-.05-.03-.25.06-.21Z"/>
    <path class="cls-2" d="M476.64,390.06c-.04.2-.15.12-.26.08-.22-.07-.01.08,0,.09.07.12-.11.36-.05.45l.26.1c-.18.06-.3-.06-.42-.09-.14-.03-.32.05-.44-.06h.41s.06-.05.06-.05c.01-.13.09-.32.02-.44-.01-.02-.17-.1-.1-.19.03-.03.17.09.22.09.1.01.2-.06.3,0Z"/>
    <path class="cls-2" d="M494.29,386.25s0-.05.03-.08c.06-.05.25-.12.33-.12.05-.05-.34-.34-.07-.39.01.01.09.27.11.32.03.06.15.15.19.25.14.33.17.75-.3.67.01-.06.12-.04.17-.07,0,0,.12-.11.12-.11,0-.03-.07-.35-.09-.4-.12-.36-.23-.14-.4-.09-.04.01-.08,0-.1.01,0,.01,0,.04-.02.06-.05.07-.15.02-.08.18.04.1.13.14.21.18.11.07-.12.22-.21.16-.02.02.06.2-.07.16-.02-.15.02-.22.12-.31l-.07-.12-.11.2c0-.15-.02-.26-.1-.39.1,0,.15-.1.22-.13.04-.01.09,0,.11,0Z"/>
    <path class="cls-2" d="M476.96,391.04s.01-.12-.03-.15l-.3-.05c.03-.07.15-.01.23-.05.12-.05.16-.53.13-.66-.03-.14-.26-.1-.2-.28l.39.2c-.11.11-.05.24-.07.38-.01.06-.05.11-.06.17-.02.14-.04.29-.04.44-.02,0-.04,0-.07,0,0,.08.03.23-.07.26l-.03-.23-.26-.05c.12-.13.25,0,.36.02Z"/>
    <path class="cls-2" d="M479.39,383.66c.02-.13.17-.16.2-.29l.13.03c-.08.18-.17.2-.33.26-.01.1.18.23.26.32.23.27.43.57.66.85.02.1-.27.25-.26.13,0-.01.2-.11.11-.25-.17-.1-.68-.88-.8-.9-.07-.01-.19.13-.26,0,.08-.1.2-.11.29-.15Z"/>
    <path class="cls-2" d="M489.04,401.9v.13c-.28-.02-.52.18-.79.1.11-.23.66-.1.77-.33.02-.05.04-.26.13-.26.09,0,.02.23.01.28,0,.06.08.13-.04.15l-.08-.06Z"/>
    <path class="cls-2" d="M491.37,384.48l.1-.02c.07.31.38.41.67.38l.05.12s-.03.04-.07.04c-.16,0-.36-.04-.5-.12-.18-.1-.46-.44-.35-.65.11.04.1.16.1.26Z"/>
    <path class="cls-2" d="M479.36,385.76c0-.08-.07-.09-.07-.16.25-.07.63-.47.44-.74l.07-.08c.09.14.2.3.11.47-.02.03-.46.48-.49.5-.02.01-.05.01-.06.02,0,.07-.22.35-.26.3-.02-.26.12-.23.26-.3Z"/>
    <path class="cls-2" d="M482.46,382.2c.18.17.75.8.9.86.05.02.13-.02.17.05,0,.06-.3.11-.36.13-.05.02-.11.12-.18.11-.12-.02.09-.22.1-.26.02.06.25.11.21.02l-.94-.94.03-.07s.04.06.06.09Z"/>
    <path class="cls-2" d="M475.78,389.76l-.03.16c.07,0,.01-.1.08-.13s.14.03.18.08c-.1.09-.2.02-.28.15-.12.22.06.53-.18.65-.09-.3.08-.6.1-.9l.13-.02Z"/>
    <path class="cls-2" d="M479.67,383.74c.22.23.4.48.63.72.02.02,0,.06.02.08.05.05.22.05.27-.02.16.07-.21.3-.23.29-.1-.02.06-.15.02-.2-.04,0-.08,0-.11-.03-.08-.07-.32-.37-.41-.48-.05-.07-.28-.34-.3-.39-.02-.04,0-.06.05-.05.03.02.04.06.06.09Z"/>
    <path class="cls-2" d="M483.04,401.89c.06.07.35.13.44.14.08,0,.44-.16.4-.01-.27.19-.6.16-.89.01-.03-.02-.04-.09-.12-.06l.11-.23s.02.11.06.15Z"/>
    <path class="cls-2" d="M476.21,388.38c.07.07-.1.14-.1.15l.07.11c-.09-.05-.17.17-.18.23,0,.06.03.11.02.14,0,.02-.09.03-.11.13-.03.12.12.15-.14.29-.15-.11.07-.22.07-.24.04-.27.01-.35.17-.6.02-.03.11-.29.2-.2Z"/>
    <path class="cls-2" d="M488.84,400.46c-.14.17.14.25.02.36-.11,0-.18-.17-.27-.19-.02,0-.32.08-.39.09-.04,0-.07.04-.11.06l-.21-.11c.26,0,.59-.24.82-.08v-.13s.13,0,.13,0Z"/>
    <path class="cls-2" d="M481.1,400.13l.05.2c.14.05.29.06.44.03.01.17-.25.14-.23.36-.15-.06.01-.22-.08-.3-.12-.02-.07.27-.08.33-.15-.13.05-.52-.26-.26-.01-.1.04-.23.09-.32.02-.04,0-.06.07-.04Z"/>
    <path class="cls-2" d="M479.19,398.52l-.2.21-.49.39c.14.09.2.15.29.3-.14.14-.21-.11-.28-.18-.06-.07-.23-.16-.21-.24h.27c.18-.17.36-.41.61-.48Z"/>
    <path class="cls-2" d="M496.47,391.01l.08-.16h.06s0,.09,0,.11v.54c-.13.03-.04-.18-.16-.16.07-.08.08-.16.07-.26h-.97s-.05-.04-.05-.07h.97Z"/>
    <path class="cls-2" d="M495.01,394.94s0-.07.05-.09c.19-.06.26.04.4.1.2.31,0,.6-.37.55-.13-.02-.16-.08-.18-.2.07.04.09.08.12.1.46.25.66-.61-.03-.46Z"/>
    <path class="cls-2" d="M495.01,394.94c-.08.14-.12.19-.1.36-.02-.01-.07,0-.09-.05-.06-.19.09-.17.1-.3.02-.02.08,0,.09,0Z"/>
    <path class="cls-2" d="M494.06,386.18l-.33.24c-.09,0-.17.1-.22.11-.05.01-.1-.05-.14.02.11.38.35-.17.59-.12l-.19.16-.23.1s.08.28-.07.26c-.02-.24-.28-.39-.26-.62.06,0,.04.07.11.11.17.09.2-.03.28-.07.07-.04.2-.08.27-.12.04-.02.04-.13.2-.08Z"/>
    <path class="cls-2" d="M481.77,399.86s.08,0,.09.03c-.06.17-.05.39-.23.48-.04-.13.07-.12.09-.22.03-.17-.08-.29-.22-.35-.12-.06-.14.03-.23-.17.04-.05.04-.05.1-.03.14.03.3.18.4.27Z"/>
    <path class="cls-2" d="M482.34,401.11c0,.2-.16.3-.1.54l.13.07c-.12.17-.19-.02-.25-.05-.05-.02-.43-.1-.43-.15.07-.08.18-.04.28-.05l.02.1h.16s.03-.24.03-.24l.16-.22Z"/>
    <path class="cls-2" d="M491.24,383.17s-.01-.08.02-.13c.05-.08.16-.03.08-.23l.3.12c-.02.14-.13.04-.21.05-.04,0-.12.18-.13.19-.02.02-.05,0-.06,0-.08.31-.31.5-.4.73-.1.27.11.19.05.38-.11,0-.16-.14-.19-.16-.05-.03-.15.04-.12-.07.19.03.13-.07.18-.16.07-.13.18-.27.26-.4.07-.12.07-.26.22-.32Z"/>
    <path class="cls-2" d="M476.64,394.52c-.19,0-.28.21-.23.37,0,0,.11.12.12.12.05.01.22,0,.27-.02.09-.04.06-.16.16-.15,0,.17-.06.13-.12.17-.03.02-.03.07-.07.08-.04.02-.2.01-.25,0-.02,0-.22-.2-.22-.22-.01-.05-.01-.21,0-.25.01-.04.06-.04.08-.07.01-.02,0-.06.02-.08.03-.03.21-.07.22.02Z"/>
    <path class="cls-2" d="M491.3,382.71l-.62,1.08c-.03-.16.11-.27.18-.4.06-.12.14-.32.21-.43.02-.03.09-.04.1-.08.04-.12-.16-.21-.16-.23l.08-.08c.06.06.11.14.21.13Z"/>
    <path class="cls-2" d="M488.81,400.95v.26c-.15-.02-.15.11-.29.15-.23.07-.31-.03-.31.31-.1-.11-.03-.29-.05-.43.07-.02.08.06.14.06s.12-.06.18-.08.13,0,.16-.02c.06-.03.06-.28.17-.26Z"/>
    <path class="cls-2" d="M476.73,388.51c.06.24-.01.49.03.72h-.36c-.03-.12.1-.04.16-.07,0,0,.09-.17.1-.18.03-.11-.01-.16-.06-.25l.13-.21Z"/>
    <path class="cls-2" d="M476.57,387.63l-.02.07-.15-.07-.07.11c0,.06.37.14.36.25-.14.03-.22-.14-.35-.12-.07.01-.09.16-.21.08,0-.09.14-.18.15-.21.03-.06.09-.34.11-.35.2,0-.03.22.16.23Z"/>
    <path class="cls-2" d="M492.04,399.06c.22.2.4.47.61.69.05.04.03.1-.02.12-.02,0-.03-.08-.05-.11-.11-.14-.28-.29-.37-.4s-.2-.23-.32-.32c.09-.11.09-.01.14.03Z"/>
    <path class="cls-2" d="M482.84,401.23s.06-.08.08-.12c.04-.11.09-.19.12-.29l.1.05c-.11.07-.1.25-.14.3-.01.02-.06,0-.06,0v.48l-.1.05c.02-.14-.03-.35,0-.48Z"/>
    <path class="cls-2" d="M476.91,392.87s-.04-.13-.04-.19h.1s0-.11,0-.11l-.13-.1.2-.21.03.61-.07.04s-.06-.02-.08-.04Z"/>
    <path class="cls-2" d="M477.42,389.17s-.08.17-.09.22c-.02.06-.05.43-.12.43l-.11-.33h.15c.04-.06-.02-.14,0-.23.02-.07.12-.15.18-.1Z"/>
    <path class="cls-2" d="M493.73,396.58c0-.14.03-.21.16-.26.02.07-.04.18-.02.23.04.08.24.13.25.23-.16-.01-.24-.2-.39-.2,0,.05,0,.11,0,.16.14.02.29.12.41.2.04.03.1.02.08.1l-.29-.12c-.04-.13-.26-.11-.35-.02-.15-.13.05-.17.07-.2.03-.06-.04-.12.07-.12Z"/>
    <path class="cls-2" d="M484.87,402.36c.1,0,.14-.03.13-.13l.21.16c.1-.03-.02-.23.07-.23.04,0,.05.13.07.16.03.05.14.05.11.15-.03.11-.19-.05-.28-.05-.11,0-.3.12-.31-.06Z"/>
    <path class="cls-2" d="M495.47,390.38c0-.05.07-.05.11-.1.05-.06.03-.15.15-.16,0,.2-.02.36.07.54l-.08.05c-.17-.14.09-.37-.25-.33Z"/>
    <path class="cls-2" d="M476.04,390.81s0,.06-.05.07c-.21.03-.41-.12-.51.12-.13-.01-.03-.19-.03-.28.16.13.39.03.59.1Z"/>
    <path class="cls-2" d="M493.83,387.27c0,.21.09.24.13.02l.07.03c-.07.08.03.36-.05.38-.09.02-.13-.15-.15-.2-.01-.02-.06-.03-.06-.05-.01-.05-.03-.21.06-.17Z"/>
    <path class="cls-2" d="M479.36,398.59c.02.12,0,.07-.05.1-.12.08-.35.31-.46.4-.03.02-.13.2-.15.08,0-.04.19-.19.22-.24l.43-.33Z"/>
    <path class="cls-2" d="M491.96,383.56l-.35.31c0,.07-.09.13-.1.18-.03.08.04.2-.07.17-.05-.27.26-.62.52-.66Z"/>
    <path class="cls-2" d="M488.12,401.7c.05.12.01.27.03.38.01.06.07.08.06.15-.09-.01-.27.1-.28-.03.26-.11.1-.27.11-.44,0-.05.02-.1.07-.05Z"/>
    <path class="cls-2" d="M496.62,391.89v.56c-.18-.02-.13-.41-.07-.52.02-.04,0-.06.07-.04Z"/>
    <path class="cls-2" d="M495.27,388.55c.02.09-.03.08-.05.12-.12.15-.29.28-.4.44l.03-.15.43-.41Z"/>
    <path class="cls-2" d="M480.51,383.59c.01.16.18.39.36.39l-.05.06c-.08.02-.31-.22-.35-.3-.06-.1-.1-.19.04-.16Z"/>
    <path class="cls-2" d="M480.8,400.69c.02.06-.03.15-.02.2.02.08.12.11.11.19-.13.03-.17-.11-.3-.1-.01-.08.07-.09.13-.1.02-.02-.07-.22.07-.19Z"/>
    <path class="cls-2" d="M478.67,385.8s0,.07.01.09c.02.02.14,0,.12.17-.1,0-.1-.1-.17-.15-.12-.07-.23,0-.33-.07-.02-.08.06-.05.11-.05.05,0,.23,0,.24,0Z"/>
    <path class="cls-2" d="M490.65,383.79l-.09.23c-.11.02-.2-.05-.28-.12-.05-.11.23-.02.24-.02.05-.01.02-.13.12-.09Z"/>
    <path class="cls-2" d="M494.78,397.77l-.12.2-.31-.07c.09-.1.3-.07.43-.13Z"/>
    <path class="cls-2" d="M481.55,401.29s.1.15.14.19c-.16.04-.21-.12-.36-.1v-.13s.2.03.22.04Z"/>
    <path class="cls-2" d="M481.95,400.03c.03.19-.02.46-.25.49l-.03-.07s.2-.12.21-.15c.02-.08-.06-.3.07-.27Z"/>
    <path class="cls-2" d="M491.73,383.46l-.07.11-.32.29c-.04-.12.32-.46.39-.39Z"/>
    <path class="cls-2" d="M486.03,381.61c.07.1.11.12.08.28-.11.02-.07-.15-.11-.22-.01-.02-.14-.14-.19-.14.02-.18.17.04.21.09Z"/>
    <path class="cls-2" d="M482.93,400.33v.1s-.24,0-.24,0l-.09-.17c.13-.03.21.04.33.07Z"/>
    <path class="cls-2" d="M494.56,397.23s.09,0,.12.03c0,0,.13.12.13.13.02.14-.15-.04-.15-.05-.07-.04-.26-.08-.27-.2.13-.04.14.07.17.09Z"/>
    <path class="cls-2" d="M489.2,400.49c-.06-.03-.28.07-.3-.02-.03-.17.34-.17.3.02Z"/>
    <path class="cls-2" d="M482.48,400.32s0-.04-.03-.06c-.06-.04-.23-.09-.12-.2l.23.13v.1s-.08.03-.08.03Z"/>
    <rect class="cls-2" x="486.15" y="401.41" width=".07" height=".56"/>
    <path class="cls-2" d="M494.78,389.33c-.11.02-.2-.25-.16-.29.19-.01.17.16.16.29Z"/>
    <path class="cls-2" d="M494.58,398l-.1.26h-.13s0-.23,0-.23c.11.06.13-.01.23-.03Z"/>
    <path class="cls-2" d="M481,400.06c-.2-.03.01-.18.02-.21.03-.06-.01-.14.11-.17v-.06c-.11,0-.15-.25-.05-.21.33.13-.07.42-.08.66Z"/>
    <path class="cls-2" d="M491.82,398.82l.04.14-.26.02s.17-.2.23-.16Z"/>
    <path class="cls-2" d="M480.57,400.88c-.13.03-.2-.05-.29-.11.05-.11.35-.03.29.11Z"/>
    <path class="cls-2" d="M495.86,389.17v.07h-.52s.04-.07.05-.07h.48Z"/>
    <path class="cls-2" d="M482.34,400.82c-.1.03-.07-.12-.06-.17.02-.09.07-.08.08-.1.02-.03.01-.15.06-.15.13,0-.15.37-.08.43Z"/>
    <path class="cls-2" d="M487.86,400.72l-.05.16-.25-.11c.07-.09.2-.04.29-.05Z"/>
    <path class="cls-2" d="M495.47,389.37c.13,0,.29-.1.39.02,0,.06-.36.09-.39-.02Z"/>
    <path class="cls-2" d="M477.1,397.6c.03-.06-.2-.25-.08-.26.06,0,.17.1.21.15l-.13.11Z"/>
    <path class="cls-2" d="M476.96,394.68l-.29-.18c.13-.13.31.02.29.18Z"/>
    <polygon class="cls-2" points="477.32 397.63 477.32 397.88 477.26 397.9 477.16 397.68 477.32 397.63"/>
    <path class="cls-2" d="M476.54,390.88c-.02.2-.27.04-.39.07.08-.11.28-.05.39-.07Z"/>
    <path class="cls-2" d="M481.46,400.78c-.04.14.09.32-.02.43-.06,0-.1-.39.02-.43Z"/>
    <path class="cls-2" d="M494.32,397.77c-.07.13-.25.04-.36.03-.05-.05,0-.06.05-.07.11-.01.21,0,.31.03Z"/>
    <path class="cls-2" d="M487.89,401.31l-.03-.39c.15,0,.13.34.03.39Z"/>
    <polygon class="cls-2" points="488.71 401.28 488.89 401.31 488.86 401.51 488.71 401.28"/>
    <path class="cls-2" d="M476.34,389.27s0,.06-.05.07c-.11.01-.21,0-.31-.03.07-.13.25-.04.36-.03Z"/>
    <path class="cls-2" d="M478.28,398.65l-.26.03c0-.08.03-.15.08-.2.03.11.14.08.18.16Z"/>
    <path class="cls-2" d="M481.29,400.82c-.01.12.02.26,0,.38,0,.05-.03.1-.07.05.01-.12-.02-.26,0-.38,0-.05.03-.1.07-.05Z"/>
    <path class="cls-2" d="M493.89,397.67s-.12.06-.15.06c-.08,0-.16,0-.24,0,.01-.18.28-.04.39-.07Z"/>
    <path class="cls-2" d="M477.12,387.93s.11.11.21.1c-.11.12-.16,0-.23-.03-.06-.03-.15-.01-.16-.08.06,0,.13-.02.19,0Z"/>
    <path class="cls-2" d="M489.86,382.87c.02.1.09.27-.03.33-.03-.03-.07-.43.03-.33Z"/>
    <path class="cls-2" d="M486.31,388.64c-.02-.09.05-.08.11-.09l.38.09h-.49Z"/>
    <path class="cls-2" d="M485.13,388.64c.08-.11.29-.08.4-.06.03,0,.1.01.09.06h-.49Z"/>
    <path class="cls-2" d="M478.5,386.06s.05.1.14.11c.03.19-.03.58-.31.5-.09-.03-.23-.2-.34-.22-.04-.05-.01-.14,0-.19.01-.02.17-.19.18-.2.04-.02.28-.02.31,0Z"/>
    <path class="cls-2" d="M492.67,398.43s.1.1.1.11c.04.13-.18.53-.29.61-.12.09-.19-.1-.22-.14-.07-.07-.22-.17-.2-.28,0-.03.31-.29.35-.3.07-.02.18-.04.25,0Z"/>
  </g>
</svg>